<?xml version="1.0" standalone="no"?>
<!DOCTYPE svg PUBLIC "-//W3C//DTD SVG 1.1//EN" "http://www.w3.org/Graphics/SVG/1.1/DTD/svg11.dtd" >
<svg>
<metadata>
Created by FontForge 20120731 at Sat Apr 19 11:13:56 2025
 By www
URW Software, Copyright 1995 by URW
</metadata>
<defs>
<font id="GilliesGotD-Ligh" horiz-adv-x="1024" >
  <font-face 
    font-family="GilliesGotDLig"
    font-weight="400"
    font-style="italic"
    font-stretch="normal"
    units-per-em="2048"
    panose-1="3 8 4 2 4 2 6 7 7 3"
    ascent="1401"
    descent="-647"
    x-height="589"
    cap-height="1427"
    bbox="-346 -608 2373 1787"
    underline-thickness="103"
    underline-position="-148"
    slope="225"
    unicode-range="U+0020-F002"
  />
<missing-glyph horiz-adv-x="512" 
d="M51 0v1365h410v-1365h-410zM410 51v1263h-308v-1263h308z" />
    <glyph glyph-name=".notdef" horiz-adv-x="512" 
d="M51 0v1365h410v-1365h-410zM410 51v1263h-308v-1263h308z" />
    <glyph glyph-name="glyph1" horiz-adv-x="0" 
 />
    <glyph glyph-name="glyph2" horiz-adv-x="512" 
 />
    <glyph glyph-name="space" unicode=" " horiz-adv-x="512" 
 />
    <glyph glyph-name="exclam" unicode="!" horiz-adv-x="495" 
d="M741 1297l-422 -998l-117 -21l421 999zM191 186q48 0 81 -39q25 -31 25 -68q0 -40 -28 -71q-34 -37 -81 -37q-41 0 -73 31q-33 32 -33 75q0 47 35 79q31 30 74 30z" />
    <glyph glyph-name="quotedbl" unicode="&#x22;" horiz-adv-x="557" 
d="M394 1051l117 19l-141 -320l-117 -21zM591 1051l117 19l-142 -320l-116 -21z" />
    <glyph glyph-name="numbersign" unicode="#" horiz-adv-x="887" 
d="M332 274l-110 -265l-111 -29l122 294h-154l36 88h154l76 183h-154l40 96h154l110 267l111 28l-122 -295h215l110 265l110 30l-121 -295h154l-37 -88h-154l-79 -191h154l-36 -88h-154l-111 -267l-110 -27l122 294h-215zM368 362h215l80 191h-216z" />
    <glyph glyph-name="dollar" unicode="$" horiz-adv-x="887" 
d="M870 863l-36 -82q-66 38 -141 53l-118 -288q14 -10 50 -33q140 -92 140 -227q0 -145 -124 -229q-91 -62 -224 -62q-31 0 -74 4l-40 -93h-99l46 110q-41 9 -96 31q-61 25 -93 49l37 87q33 -25 85 -50q57 -27 101 -37l168 403q-33 20 -67 47q-44 36 -66 65q-33 44 -33 109
q0 118 111 181q74 42 188 42q25 0 52 -3l34 79l99 -5l-40 -92q84 -25 140 -59zM598 849q-18 2 -30 2q-47 0 -88 -14q-39 -15 -65 -48t-26 -69q0 -68 102 -129zM534 453l-154 -368q20 -3 35 -3q48 0 93 13q70 21 114 74q41 50 41 117q0 74 -68 127q-24 18 -61 40z" />
    <glyph glyph-name="percent" unicode="%" horiz-adv-x="1441" 
d="M538 1004q109 0 170 -87q37 -54 37 -125q0 -114 -86 -222q-119 -149 -270 -149q-88 0 -147 64q-52 58 -52 143q0 128 84 236q68 87 164 122q49 18 100 18zM530 920q-96 0 -181 -101q-73 -86 -73 -183q0 -49 28 -85q34 -44 88 -44q92 0 181 92q86 90 86 190q0 50 -34 92
q-31 39 -95 39zM1166 1120l-636 -1212l-105 -24l635 1212zM1186 570q110 0 170 -87q37 -54 37 -125q0 -114 -86 -222q-118 -149 -269 -149q-89 0 -147 64q-52 58 -52 143q0 128 84 236q109 140 263 140zM1178 486q-95 0 -180 -101q-73 -86 -73 -183q0 -49 28 -85
q34 -44 88 -44q92 0 180 92q86 90 86 190q0 50 -34 92q-31 39 -95 39z" />
    <glyph glyph-name="ampersand" unicode="&#x26;" 
d="M1024 275l-56 -84h-93q-41 -106 -121 -156q-47 -33 -219 -35h-283q-110 0 -164 27.5t-54 83.5q0 43 27 75q7 8 48.5 44.5t53.5 44.5l153 106l16 13q36 29 36 40q0 8 -8 25q-13 28 -25 77.5t-12 74.5q0 117 125 221q86 72 207 110q91 28 181 28q139 0 139 -105
q0 -64 -67 -138q-82 -91 -178 -158h-151q290 228 290 280q0 30 -47 30q-125 0 -271 -96q-127 -84 -127 -175q0 -38 22 -92q30 -76 30 -98q0 -51 -64 -96l-190 -131l-25 -21q-39 -31 -39 -48q0 -22 40 -26q76 -8 144 -8h163q152 4 181 21q50 24 78 82h-167l58 84h369z" />
    <glyph glyph-name="quotesingle" unicode="'" horiz-adv-x="360" 
d="M511 1070l-141 -320l-117 -21l141 322z" />
    <glyph glyph-name="parenleft" unicode="(" horiz-adv-x="506" 
d="M900 1427q-400 -418 -563 -871q-134 -375 -134 -809q0 -58 4 -116h-94q-8 65 -8 156q0 555 235 1026q173 346 447 614h113z" />
    <glyph glyph-name="parenright" unicode=")" horiz-adv-x="506" 
d="M-124 -369q401 418 563 871q134 374 134 809q0 58 -4 116h94q8 -65 8 -156q0 -555 -235 -1026q-173 -346 -447 -614h-113z" />
    <glyph glyph-name="asterisk" unicode="*" horiz-adv-x="887" 
d="M713 1142l-181 155l55 64l181 -154l92 220l78 -33l-91 -220l237 -19l-6 -84l-238 19l56 -232l-83 -20l-55 232l-204 -125l-44 73z" />
    <glyph glyph-name="plus" unicode="+" horiz-adv-x="887" 
d="M899 513l-40 -98h-304l-138 -333l-125 -30l150 363h-304l41 98h304l139 335l124 28l-151 -363h304z" />
    <glyph glyph-name="comma" unicode="," horiz-adv-x="396" 
d="M75 -141l66 123q-84 22 -84 92q0 41 28 70q30 32 75 32q44 0 73 -30q28 -29 28 -67q0 -51 -58 -154q-25 -45 -35 -66h-93z" />
    <glyph glyph-name="hyphen" unicode="-" horiz-adv-x="299" 
d="M330 357l-37 -98h-297l42 98h292z" />
    <glyph glyph-name="period" unicode="." horiz-adv-x="396" 
d="M161 175q46 0 76 -35q23 -28 23 -65q0 -40 -26 -68q-30 -34 -76 -34q-42 0 -72 29q-28 29 -28 69q0 44 27 73q29 31 76 31z" />
    <glyph glyph-name="slash" unicode="/" horiz-adv-x="776" 
d="M1148 1427l-1143 -1782l-114 -14l1141 1782z" />
    <glyph glyph-name="zero" unicode="0" horiz-adv-x="887" 
d="M629 935q150 0 227 -141q46 -86 46 -199q0 -188 -126 -368q-83 -118 -185 -182.5t-206 -64.5q-117 0 -191 104q-66 92 -66 225q0 214 122 392q100 145 242 205q69 29 137 29zM614 839q-64 0 -139 -50t-136 -135q-112 -152 -112 -335q0 -123 62 -189q50 -54 108 -54
q81 0 186 83q115 90 175 230q45 104 45 199q0 93 -45 174q-42 77 -144 77z" />
    <glyph glyph-name="one" unicode="1" horiz-adv-x="887" 
d="M784 947l-384 -941l-122 -30l384 940z" />
    <glyph glyph-name="two" unicode="2" horiz-adv-x="887" 
d="M253 757q49 47 121 92q164 104 290 104q110 0 168 -81q46 -64 46 -146q0 -238 -297 -456q-120 -87 -313 -184h528l-79 -86h-667q-86 -34 -197 -56l116 142h108q218 106 391 227q309 215 309 407q0 71 -42 109q-34 31 -82 31q-150 0 -400 -213v110z" />
    <glyph glyph-name="three" unicode="3" horiz-adv-x="888" 
d="M352 895q157 57 301 57q88 0 152 -41q70 -44 70 -126q0 -147 -212 -252q120 -46 120 -155q0 -173 -185 -291q-155 -98 -382 -98q-87 0 -176 19l-20 89q97 -23 196 -23q199 0 330 85q72 47 115 117q27 44 27 87q0 53 -49 88q-33 23 -91 23q-60 0 -122 -13
q-99 -20 -123 -22l74 123q44 -5 78 -5q92 0 190 66q133 88 133 162q0 31 -33 53q-39 26 -106 26q-123 0 -323 -71z" />
    <glyph glyph-name="four" unicode="4" horiz-adv-x="887" 
d="M882 292l-54 -84h-203l-79 -199l-131 -71l107 270h-479l61 105l705 591l107 26l-255 -638h221zM746 745l-549 -453h360z" />
    <glyph glyph-name="five" unicode="5" horiz-adv-x="887" 
d="M912 915l-37 -89h-388l-115 -258q110 60 221 60q117 0 183 -63q57 -55 57 -146q0 -132 -123 -246q-125 -114 -308 -161q-135 -34 -244 -34q-24 0 -75 4l-32 81q46 -5 90 -5q158 0 301 54q149 55 242 170q52 64 52 131q0 75 -53 107q-43 27 -95 27q-119 0 -242 -91
q-33 -25 -62 -56l-46 74l190 441h484z" />
    <glyph glyph-name="six" unicode="6" horiz-adv-x="887" 
d="M973 1092q-304 -241 -461 -404q-281 -293 -281 -501q0 -50 30 -91q39 -52 101 -52q55 0 124.5 35.5t128.5 93.5q63 63 102.5 142t39.5 143q0 39 -26 69q-28 32 -69 32q-83 0 -199 -85q-35 -25 -74 -63v112q64 58 142.5 92.5t145.5 34.5q81 0 131 -62q41 -51 41 -116
q0 -186 -166 -357q-157 -161 -336 -161q-100 0 -161 75q-49 60 -49 140q0 100 43.5 203t139.5 232q138 183 389 389q85 70 107 88z" />
    <glyph glyph-name="seven" unicode="7" horiz-adv-x="887" 
d="M942 923q-21 -35 -138 -210q-69 -103 -176.5 -275.5t-150.5 -247.5q-66 -117 -151 -296l-123 -34q176 385 564 971h-598l69 92h704z" />
    <glyph glyph-name="eight" unicode="8" horiz-adv-x="887" 
d="M747 478q33 -34 50 -58q40 -57 40 -130q0 -152 -141 -242q-117 -75 -273 -75q-132 0 -221 56q-104 65 -104 187q0 114 82 205q50 55 135 87q12 5 41 14q-62 68 -62 153q0 66 30 122.5t83 88.5q89 55 215 55q102 0 170 -33q62 -31 97 -85.5t35 -121.5q0 -83 -60 -151
q-43 -48 -117 -72zM495 452q-109 0 -197 -60q-101 -69 -101 -168q0 -81 69 -123q63 -38 150 -38q137 0 228 62q98 66 98 156q0 75 -76 126q-68 45 -171 45zM623 852q-93 0 -159 -44q-67 -43 -67 -124q0 -73 61 -109q54 -33 130 -33q89 0 157 39q78 44 78 128q0 75 -71 115
q-49 28 -129 28z" />
    <glyph glyph-name="nine" unicode="9" horiz-adv-x="887" 
d="M611 438v-116q-128 -96 -238 -96q-90 0 -151 70q-61 69 -61 161q0 191 162 366q167 180 361 180q91 0 159 -65q81 -77 81 -189q0 -262 -330 -596q-139 -140 -313 -272h-152q198 143 350 288q172 164 266 328q81 142 81 245q0 62 -41 109q-46 53 -110 53q-104 0 -218 -89
q-91 -70 -141 -158.5t-50 -179.5q0 -60 34 -106q35 -47 89 -47q78 0 222 114z" />
    <glyph glyph-name="colon" unicode=":" horiz-adv-x="396" 
d="M318 576q46 0 76 -35q23 -28 23 -65q0 -40 -26 -68q-30 -34 -76 -34q-42 0 -72 29q-28 29 -28 69q0 44 27 73q29 31 76 31zM145 175q46 0 76 -35q23 -28 23 -65q0 -40 -26 -68q-30 -34 -76 -34q-42 0 -72 29q-28 29 -28 69q0 44 27 73q29 31 76 31z" />
    <glyph glyph-name="semicolon" unicode=";" horiz-adv-x="396" 
d="M60 -141l66 123q-84 22 -84 92q0 41 28 70q30 32 75 32q44 0 73 -30q28 -29 28 -67q0 -51 -58 -154q-25 -45 -35 -66h-93zM318 576q46 0 76 -35q23 -28 23 -65q0 -40 -26 -68q-30 -34 -76 -34q-42 0 -72 29q-28 29 -28 69q0 44 27 73q29 31 76 31z" />
    <glyph glyph-name="less" unicode="&#x3c;" 
d="M1123 1139v-110l-768 -342l768 -342v-110l-887 403v98z" />
    <glyph glyph-name="equal" unicode="=" horiz-adv-x="887" 
d="M950 636l-41 -98h-720l41 98h720zM848 390l-40 -98h-721l41 98h720z" />
    <glyph glyph-name="greater" unicode="&#x3e;" 
d="M237 235v110l769 342l-769 342v109l887 -403v-97z" />
    <glyph glyph-name="question" unicode="?" horiz-adv-x="761" 
d="M306 1210q162 60 199 73q246 81 436 81q129 0 201 -64q63 -56 63 -143q0 -97 -84 -195q-48 -56 -186 -165q-177 -139 -259.5 -213t-139.5 -143q-50 -60 -100 -142l-118 -21q60 121 135 215q79 99 191 193q92 77 253 201q212 164 212 266q0 67 -73 101q-37 18 -101 18
q-246 0 -648 -175zM309 185q47 0 80 -39q25 -31 25 -69q0 -42 -30 -74q-33 -34 -77 -34q-41 0 -74 31q-35 33 -35 77q0 46 36 79q32 29 75 29z" />
    <glyph glyph-name="at" unicode="@" horiz-adv-x="1404" 
d="M955 170l57 -73q-98 -60 -162 -85q-121 -46 -240 -46q-94 0 -177 36.5t-139 101.5q-95 110 -95 288q0 342 293 665q151 166 318.5 253.5t334.5 87.5q106 0 191.5 -44.5t136.5 -124.5q64 -103 64 -252q0 -143 -51.5 -275.5t-145.5 -229.5q-130 -134 -304 -134
q-101 0 -136 45q-16 20 -27 71q-115 -124 -225 -124q-41 0 -69 29q-30 31 -30 74q0 129 125 285q219 273 582 271l-61 -90q-126 -11 -231 -58q-97 -43 -200 -168q-116 -140 -116 -218q0 -27 23 -27q46 0 123 68q88 78 135 168l49 110l170 52q-26 -50 -126 -202
q-46 -69 -46 -121q0 -76 81 -76q111 0 205 99q83 88 129 203.5t46 238.5q0 144 -82 240q-76 90 -213 90q-297 0 -576 -310q-267 -296 -267 -585q0 -155 82 -245q89 -97 251 -97q105 0 207 46q35 16 116 63z" />
    <glyph glyph-name="A" unicode="A" horiz-adv-x="1375" 
d="M17 448h292q32 149 112 299.5t194 279.5q170 193 364 302q173 98 308 98q131 0 188 -115q35 -72 35 -168q0 -158 -55 -346.5t-170 -428.5q-73 -151 -179 -349l-121 -39q36 64 97.5 186t91.5 190h-778q-13 -64 -13 -170q0 -168 28 -372l-101 55q-27 139 -27 324
q0 82 10 163h-348zM416 448h796q10 24 91 214q48 112 79.5 250t31.5 237q0 86 -37 139q-35 52 -96 52q-132 0 -334 -142q-206 -144 -360 -367q-131 -190 -171 -383z" />
    <glyph glyph-name="B" unicode="B" horiz-adv-x="965" 
d="M195 185l269 640q96 228 163 328q95 141 227 212q113 62 214 62q79 0 124 -48q35 -37 35 -97q0 -100 -82 -225q-31 -46 -168.5 -204.5t-268.5 -298.5q-27 -29 -27 -46t106 -208q63 -112 63 -161q0 -64 -64 -108q-44 -31 -179 -31h-607l80 93h499q67 0 91 3q59 5 59 51
q0 27 -21 69l-42 84q-77 136 -86 157q-18 41 -18 59q0 31 36 73q10 12 189 206q192 210 260 310q80 118 80 177q0 24 -18 39t-46 15q-82 0 -179 -58q-120 -71 -201 -228q-38 -73 -105 -232l-252 -596z" />
    <glyph glyph-name="C" unicode="C" horiz-adv-x="1203" 
d="M1114 93l-93 -93h-511q-188 0 -252 26q-143 57 -143 253q0 112 51.5 224.5t164.5 247.5q290 347 706 549q211 102 355 102q95 0 142 -50q41 -44 41 -108q0 -207 -299 -463q-209 -180 -460 -312l-113 48q164 81 366 225q231 166 322 302q81 120 81 191q0 38 -31 60
q-27 18 -67 18q-174 0 -473 -195q-328 -213 -526 -468q-160 -206 -160 -369q0 -64 33 -110t88 -60q59 -15 229 -18h549z" />
    <glyph glyph-name="D" unicode="D" horiz-adv-x="1299" 
d="M220 984l32 112q147 71 408 166q393 143 645 143q147 0 213 -93q52 -72 52 -189q0 -220 -206 -477q-159 -200 -420 -377q-238 -162 -454 -237q-138 -48 -221 -48q-85 0 -85 70q0 74 85 290q203 520 303 712l143 50q-20 -43 -125 -266q-116 -246 -230 -544
q-54 -140 -54 -171q0 -32 29 -32q69 0 231 71q275 119 540 352q176 154 268.5 309.5t92.5 295.5q0 89 -55 142q-46 43 -141 43q-195 0 -630 -153q-138 -49 -421 -169z" />
    <glyph glyph-name="E" unicode="E" horiz-adv-x="1027" 
d="M1054 93l-84 -93h-691q-71 0 -144 6q-53 5 -93 37q-42 34 -42 89q0 90 105 174q132 105 339 237q74 47 74 67q0 12 -15 42q-66 127 -66 226q0 165 176 319q128 112 285 164q101 34 205 34q114 0 179 -54q60 -51 60 -114q0 -135 -206 -301q-60 -48 -143 -106l-110 37
q153 98 259 205q100 100 100 155q0 43 -47 68q-39 21 -108 21q-196 0 -372 -146q-82 -67 -128.5 -144t-46.5 -144q0 -77 70 -203q27 -48 27 -67q0 -37 -51 -80q-21 -19 -92 -65l-248 -162q-134 -87 -134 -136q0 -64 117 -65q4 1 69 -1h32h724z" />
    <glyph glyph-name="F" unicode="F" horiz-adv-x="1346" 
d="M524 836l-98 -29q-37 37 -78 89q-56 71 -79 119.5t-23 96.5q0 132 159 202q95 41 286 49q43 2 165 2h948l-34 -85h-437l-271 -667h318l-76 -85h-273l-213 -526l-129 -39l226 565h-221l76 85h178l269 667h-337q-223 0 -328 -21q-200 -40 -200 -143q0 -53 37 -107
q40 -59 135 -173z" />
    <glyph glyph-name="G" unicode="G" horiz-adv-x="1195" 
d="M1294 649q-14 -16 -119 -143q-21 -26 -149 -161q-161 -405 -292 -600q-109 -166 -219 -261q-30 -26 -62 -54l-102 36q116 102 159 148q180 187 342 583q-123 -101 -261 -162.5t-242 -61.5q-55 0 -107 26t-86 70q-53 68 -53 159q0 113 59 250.5t165 270.5q193 240 473 432
q204 140 382 199q105 35 182 35q71 0 117 -44q37 -35 37 -86q0 -106 -96.5 -245.5t-279.5 -295.5q-219 -189 -366 -267l-115 43q309 180 529 396q139 138 212 277q27 51 27 77q0 31 -25 50q-22 17 -50 17q-51 0 -145 -35t-182 -87q-181 -107 -344.5 -245.5t-274.5 -278.5
q-204 -259 -204 -452q0 -79 44 -122q43 -41 122 -41q154 0 377 153q161 110 240 225q48 68 114 183z" />
    <glyph glyph-name="H" unicode="H" horiz-adv-x="1113" 
d="M1476 1525l-681 -1667l-123 -35l215 532h-480l-138 -332l-122 -34l149 366h-288l73 90h252l324 788l122 34l-335 -822h480l428 1046z" />
    <glyph glyph-name="I" unicode="I" horiz-adv-x="944" 
d="M-89 93h157q209 1 266 6q248 20 369 179q62 86 129 255l165 412q9 22 65 182q37 106 37 143q0 56 -54 56q-73 0 -185 -67.5t-205 -166.5q-111 -120 -174 -244q-51 -100 -51 -176q0 -134 139 -341h-116q-35 66 -56 110q-62 135 -62 241q0 114 72 242t208 255
q135 126 270 197q98 51 175 51t118 -52q25 -33 25 -86q0 -54 -19.5 -125t-72.5 -207q-73 -188 -166.5 -402t-132.5 -282q-92 -161 -241 -217t-476 -56h-266z" />
    <glyph glyph-name="J" unicode="J" horiz-adv-x="1050" 
d="M517 165h-115q-252 311 -252 487q0 127 129 291q82 103 211.5 211t260.5 181q205 115 336 115q79 0 127 -59q40 -49 40 -110q0 -77 -60 -226l-377 -933q15 2 75 9q27 4 53 4q9 0 25 -1l63 -83h-33q-114 0 -224 -30q-10 -21 -63 -151q-83 -199 -182 -311
q-125 -141 -246 -141q-60 0 -87 57q-13 27 -13 61q0 66 44 148q103 192 338 335q64 38 129 66l311 764q78 190 101 253q43 121 43 170q0 35 -25 59q-23 24 -56 24q-102 0 -323 -135q-233 -141 -375 -321q-125 -157 -125 -262q0 -100 130 -286q53 -75 140 -186zM651 -29
q-121 -72 -215 -166q-75 -74 -117 -144.5t-42 -120.5q0 -32 28 -32q60 0 156 113q99 116 190 350z" />
    <glyph glyph-name="K" unicode="K" horiz-adv-x="1053" 
d="M1408 1312l-817 -796q75 -113 189 -248.5t222 -242.5l-92 -42q-139 120 -271 283q-127 159 -180 267l842 820zM805 1415l-571 -1417l-111 -34l555 1412z" />
    <glyph glyph-name="L" unicode="L" horiz-adv-x="1063" 
d="M1052 94l-77 -97q-90 13 -427 13q-248 0 -358 -13q-51 -48 -188 -125q-126 -71 -216 -81l118 194q120 57 243 98q33 51 62 100q48 80 166 346q207 471 336 645q95 130 248 206q83 42 165 42q64 0 104 -39t40 -103q0 -66 -44 -155q-57 -116 -304 -428h-126q80 90 221 277
q158 210 158 296q0 25 -18 41.5t-44 16.5q-93 0 -220 -109q-102 -88 -177 -220q-81 -144 -331 -701q-60 -133 -111 -204h22q29 0 142 6q100 5 318 5q160 0 298 -11z" />
    <glyph glyph-name="M" unicode="M" horiz-adv-x="1291" 
d="M1554 1397q-225 -392 -349 -717q-98 -256 -130 -430q-12 -66 -12 -97q0 -40 32 -52q22 -8 80 -8h142l-79 -93h-147q-131 0 -131 131q0 121 70 345q89 288 258 587q-41 -64 -198 -321q-107 -174 -341 -525q-111 -166 -128 -189l-145 -73q9 40 83 282q135 457 204 672
q53 146 62 172q-162 -335 -329 -585q-224 -337 -500 -603h-139q258 247 435 481q133 176 279 422.5t285 530.5l142 52q-213 -763 -361 -1165l29 46q94 144 188 289q154 236 279 414q253 361 303 416z" />
    <glyph glyph-name="N" unicode="N" horiz-adv-x="1216" 
d="M1516 1328q-192 -598 -484 -1014q-166 -235 -293 -322q-57 -38 -88 -38q-45 0 -61 66q-12 50 -12 166q0 259 98 583l-16 -25q-87 -141 -153 -239q-85 -123 -215 -270t-258 -265l-116 22q248 254 302 316q132 150 267 345t227 369q35 68 147 306l140 52
q-129 -284 -185 -461q-67 -213 -103 -426q-31 -181 -31 -307q0 -53 3 -65q4 -16 15 -16q17 0 66 50t113 133q228 292 414 725q79 185 148 409z" />
    <glyph glyph-name="O" unicode="O" horiz-adv-x="1404" 
d="M1688 920l-59 -97h-115q-59 -251 -216 -458q-137 -180 -319 -288q-186 -111 -373 -111q-91 0 -174 37t-138 101q-95 111 -95 289q0 343 293 664q152 167 319 254t335 87q219 0 325 -170q66 -105 66 -223q0 -24 -6 -85h157zM1410 823q-43 2 -78 6q-123 12 -123 103
q0 68 83 169q43 53 84 83q-39 53 -76 75q-67 39 -160 39q-295 0 -574 -309q-267 -296 -267 -585q0 -155 82 -246q89 -97 244 -97q211 0 425 184q222 192 324 458q20 53 36 120zM1430 920q7 35 7 65q0 55 -17 101q-93 -77 -93 -124q0 -35 56 -40q4 -1 31 -2h16z" />
    <glyph glyph-name="P" unicode="P" horiz-adv-x="1280" 
d="M339 1389q116 6 180 6q158 0 196 -24q51 -32 51 -132q0 -74 -20 -160q-8 -33 -40 -159q128 154 242 267q269 266 421 266q95 0 139 -103q21 -47 21 -125q0 -220 -116 -463q-127 -267 -301 -351q-134 -65 -408 -65q-19 0 -65 1l-72 94h32q255 6 328 15q150 19 240 112
q130 135 208 364q53 156 53 284q0 140 -66 140q-109 0 -421 -318q-196 -201 -306 -353q-56 -77 -122 -199q-173 -316 -314 -498l-158 -42q34 59 116 192q154 247 249 386q136 196 161 252q32 70 64 219q31 148 31 233q0 50 -35 65q-26 11 -78 11q-27 0 -140 -3z" />
    <glyph glyph-name="Q" unicode="Q" horiz-adv-x="1420" 
d="M1325 93l77 -93h-1004q-70 -35 -188.5 -68t-243.5 -54q127 159 189 205q78 4 126 4q76 1 107 6q85 28 300 161q151 94 237 161h-306q-194 3 -256 14q-82 15 -126 81q-30 45 -30 105q0 96 43 185.5t138 187.5q192 201 473 310q213 82 422 82q157 0 242 -58q86 -59 86 -154
q0 -88 -52.5 -195.5t-162.5 -244.5q-96 -120 -206 -224h247l-80 -89h-276q-173 -128 -209 -152q-116 -79 -287 -170h740zM1051 504q123 93 273 287q187 242 187 347q0 80 -63 119q-61 37 -159 37q-345 0 -680 -244q-151 -111 -235 -236q-66 -98 -66 -181q0 -92 81 -112
q69 -17 269 -17h393z" />
    <glyph glyph-name="R" unicode="R" horiz-adv-x="1442" 
d="M389 1384q142 7 282 7q111 0 151 -38q42 -40 42 -96q0 -105 -88 -282q-42 -85 -52 -107q96 91 255 220q175 141 316 224q159 93 276 93q73 0 112 -63q26 -42 26 -100q0 -100 -39 -220.5t-105 -227.5q-168 -272 -465 -347q-79 -20 -176 -21q91 -181 123 -333h218l41 -93
h-340q-13 85 -66 234q-47 128 -84 192q-47 5 -113 27q-63 21 -96 44q112 66 209 92q34 -36 53 -69q37 -10 66 -10q185 0 359 125q166 119 260 352q58 142 58 248q0 33 -18 55q-16 19 -44 19q-142 0 -542 -316q-154 -122 -317 -281q-97 -95 -173 -194q-28 -36 -178 -242
q-162 -211 -232 -276l-149 -24q95 140 150 213q38 50 158.5 195.5t162.5 191.5q95 107 128 160q56 92 125 269q55 140 64.5 170t9.5 63q0 37 -32 48q-25 9 -106 9q-27 0 -116 -4q-51 -2 -72 -2z" />
    <glyph glyph-name="S" unicode="S" horiz-adv-x="1057" 
d="M824 658q77 73 155 147q75 70 164.5 181.5t136.5 192.5q33 56 33 96q0 32 -24.5 51.5t-64.5 19.5q-74 0 -191.5 -47t-235.5 -124q-146 -95 -224 -188.5t-78 -173.5q0 -52 36 -97q59 -73 171 -163q137 -110 197 -184q44 -53 44 -111q0 -132 -139 -210q-62 -35 -153 -41
q-43 -2 -194 -7h-594l82 93h468q166 0 255 12q65 9 116 50q51 40 51 89q0 40 -39 80q-34 36 -92 82q-141 113 -232 212q-81 88 -81 181q0 98 69 199t201 197q175 127 377 195q109 37 210 37q54 0 97 -23q63 -35 63 -109q0 -70 -44.5 -158.5t-140.5 -206.5
q-123 -153 -276 -288z" />
    <glyph glyph-name="T" unicode="T" horiz-adv-x="1119" 
d="M1569 1328l-56 -98l-379 -61l-486 -1214l-124 -32l491 1225l-838 -130l56 97l822 133l94 231l125 41l-101 -253z" />
    <glyph glyph-name="U" unicode="U" horiz-adv-x="1276" 
d="M314 1289l87 101q47 6 84 6q118 0 176 -39.5t58 -120.5q0 -47 -13 -98.5t-52 -154.5q-27 -72 -150 -375q-90 -222 -122 -322q-30 -94 -30 -150q0 -41 22 -67q25 -30 67 -30q112 0 278 164q204 202 333 450q37 73 143 330q72 174 175 378l168 65q-30 -90 -130.5 -304
t-163.5 -325q-90 -156 -108 -204q-42 -106 -70 -260q-23 -130 -23 -163q0 -51 26 -67q12 -8 132 -8q69 2 84 2l-54 -97h-135q-67 0 -97 15q-58 29 -58 111q0 76 37 244l-22 -27q-118 -149 -173 -203q-193 -193 -358 -193q-82 0 -133 63q-39 47 -39 111q0 90 42 212
q43 125 212 547q54 134 93 247q17 49 17 90q0 65 -63 82q-31 8 -87 8q-78 0 -153 -18z" />
    <glyph glyph-name="V" unicode="V" horiz-adv-x="1113" 
d="M1465 1452l35 -140q-144 -267 -399 -623q-315 -442 -570 -643q-90 -72 -120 -72q-69 0 -69 149q0 280 98 785q65 338 113 487l119 57q-8 -31 -60 -219q-27 -99 -70 -326t-62 -375q-32 -250 -32 -372q0 -36 18 -36q14 0 88 69.5t158 163.5q242 268 526 716
q125 198 227 379z" />
    <glyph glyph-name="W" unicode="W" horiz-adv-x="1625" 
d="M1921 1376l63 -87q-250 -464 -535 -828q-383 -492 -480 -492q-49 0 -49 77q0 154 48 408q23 123 63 256q-16 -23 -31 -45q-173 -249 -403 -496q-185 -198 -233 -198q-49 0 -49 77q0 247 102 686q67 287 176 618l134 38q-103 -237 -210 -706q-72 -322 -86 -537
q112 109 264 293q209 255 378 511q65 280 100 383l131 56q-75 -208 -182 -701q-88 -418 -91 -558q139 140 336 398q250 328 447 666q82 140 107 181z" />
    <glyph glyph-name="X" unicode="X" horiz-adv-x="1204" 
d="M1668 1458l-49 -127q-139 -47 -372 -185q-155 -93 -328 -226q147 -396 216 -889l-104 -53q-82 575 -198 872q-172 -137 -430 -427q-149 -169 -316 -415l-144 -30q141 258 479 627q139 151 374 349q-28 85 -92.5 230t-126.5 262l121 -18q30 -55 89.5 -188.5t92.5 -219.5
q208 157 409 268.5t379 169.5z" />
    <glyph glyph-name="Y" unicode="Y" horiz-adv-x="1192" 
d="M1527 1379q-8 -17 -66 -154q-140 -319 -388 -717q-107 -389 -207 -619q-129 -295 -357 -492l-136 12q137 128 182 183q165 192 276 501q69 192 82 226q-69 -81 -124 -134q-191 -185 -370 -185q-102 0 -145 72q-21 34 -21 76q0 70 26 145q67 190 162 417l143 341l26 67
q45 119 45 142q0 31 -34 40q-22 6 -60 6q-67 0 -152 -24l45 97q72 16 136 16q98 0 138 -38q37 -35 37 -79q0 -38 -20 -91q-29 -77 -205 -514q-140 -345 -166 -417q-21 -57 -21 -87q0 -74 86 -74q135 0 348 221q130 135 221 273q83 243 325 693z" />
    <glyph glyph-name="Z" unicode="Z" horiz-adv-x="1174" 
d="M270 907l-24 108q208 215 394 328q311 189 604 189q112 0 175 -40t63 -116q0 -176 -279 -547q-126 -166 -294 -348q-26 -28 -190 -200q-35 -37 -35 -62q0 -22 38 -117q179 75 320 75q20 0 61 -2l48 -96q-67 7 -101 7q-142 0 -309 -86q1 -23 1 -40q0 -84 -58 -165.5
t-186 -175.5q-187 -138 -337 -179q-61 -16 -102 -16q-100 0 -100 73q0 98 220 270q112 87 228 155q199 116 219 129l-18 49q-31 86 -31 116q0 40 34 88q20 27 82 94q362 394 518 609q95 132 142 244q29 70 29 109q0 50 -54 72q-30 12 -74 12q-140 0 -324 -68
q-248 -93 -486 -302q-75 -66 -174 -167zM640 -56q-99 -43 -311 -188q-155 -106 -206 -151q-44 -37 -44 -60q0 -24 27 -24q62 0 229 102q188 114 271 232q34 48 34 89z" />
    <glyph glyph-name="bracketleft" unicode="[" horiz-adv-x="653" 
d="M1014 1427l-36 -89h-200l-670 -1618h200l-37 -89h-302l744 1796h301z" />
    <glyph glyph-name="backslash" unicode="\" horiz-adv-x="776" 
d="M416 1413l94 14l247 -1783l-93 -13z" />
    <glyph glyph-name="bracketright" unicode="]" horiz-adv-x="613" 
d="M-182 -369l37 89h199l670 1618h-199l37 89h301l-743 -1796h-302z" />
    <glyph glyph-name="asciicircum" unicode="^" 
d="M356 769h-122l374 599h144l374 -599h-123l-325 512z" />
    <glyph glyph-name="underscore" unicode="_" 
d="M168 -147h1024v-103h-1024v103z" />
    <glyph glyph-name="grave" unicode="`" 
d="M729 920l120 -175h-98l-121 175h99z" />
    <glyph glyph-name="a" unicode="a" horiz-adv-x="650" 
d="M618 485q-26 -51 -126 -202q-46 -69 -46 -121q0 -56 34 -68q17 -5 82 -6h103l-57 -88h-98q-80 -2 -124 26q-30 22 -43 87q-114 -125 -225 -125q-41 0 -69 29q-30 31 -30 74q0 129 125 285q219 273 582 272l-61 -90q-125 -11 -231 -58q-97 -43 -200 -168
q-116 -141 -116 -219q0 -27 23 -27q46 0 123 68q88 78 135 168q1 3 49 110z" />
    <glyph glyph-name="b" unicode="b" horiz-adv-x="637" 
d="M701 506l-41 -90h-78q-14 -118 -75 -229q-50 -89 -117 -143q-74 -60 -148 -60q-73 0 -127 61q-38 42 -38 114q0 59 20.5 135t71.5 208q196 505 380 882l132 40q-112 -215 -260 -564q-130 -306 -186 -460q-58 -158 -58 -232q0 -37 22 -65q19 -24 50 -24q64 0 131 84
q76 95 104 253h-36q-34 1 -45 3q-24 5 -24 30q0 39 50 97q39 44 78 44q44 0 62 -43q5 -12 13 -41h119z" />
    <glyph glyph-name="c" unicode="c" horiz-adv-x="534" 
d="M495 88l-54 -88h-213q-90 0 -128 20q-30 15 -48.5 50.5t-18.5 76.5q0 122 95 248q90 121 224 185q76 37 138 37q41 0 71 -24q27 -23 27 -55q0 -69 -87 -180h-129q50 44 85.5 88t35.5 62t-24 18q-42 0 -110.5 -42t-121.5 -99q-59 -67 -91 -144q-19 -45 -19 -79
q0 -60 57 -69q30 -5 76 -5h235z" />
    <glyph glyph-name="d" unicode="d" horiz-adv-x="787" 
d="M834 88l-55 -88h-99q-49 -1 -77 13q-46 20 -63 146q-3 38 -4 156q-73 -94 -127 -158q-151 -173 -260 -173q-51 0 -89 42q-27 30 -27 86q0 127 98 262q117 161 289 221q67 23 137 33l-44 -107q-81 -18 -120 -37q-92 -45 -181 -175q-74 -108 -74 -176q0 -19 10 -32.5
t25 -13.5q44 0 155 132q96 113 208 266q56 323 203 589q118 214 237 300q82 59 136 59q32 0 49 -27q11 -15 11 -34q0 -66 -85 -213q-54 -94 -301 -467q-128 -193 -151 -225q-10 -84 -10 -167q0 -115 7 -150q10 -54 50 -59q21 -3 49 -3h103zM675 676q48 70 104 159
q59 93 131 207q89 137 115 190q19 40 25 50q7 11 7 21t-7 10q-18 0 -62 -50t-101 -135q-152 -227 -212 -452z" />
    <glyph glyph-name="e" unicode="e" horiz-adv-x="545" 
d="M500 88l-50 -88h-247q-71 0 -108 18q-62 29 -62 115q0 72 36.5 154t100.5 155q86 97 201 155q57 29 109 29q46 0 76 -37q22 -26 22 -59q0 -88 -111 -197q-131 -128 -332 -207q2 -17 24 -28q17 -8 108 -10h233zM154 232q95 34 193 113q57 46 103 113q28 41 28 60
q0 17 -18 17q-33 0 -94 -41t-109 -96q-73 -83 -103 -166z" />
    <glyph glyph-name="f" unicode="f" horiz-adv-x="603" 
d="M648 597l-58 -86h-206q77 -60 118 -144.5t41 -181.5q0 -149 -85 -331q-105 -225 -246 -341q-123 -101 -213 -101q-52 0 -78 42q-20 31 -20 78q0 88 46 240q27 88 153 425q30 79 111 303q-35 15 -54 21q-44 14 -57 22l37 54h115q129 320 217 520q104 232 121 273l119 37
q-38 -76 -113 -263q-66 -163 -132 -316q-80 -187 -106 -251h290zM299 458q-32 -78 -186 -494q-125 -339 -125 -415q0 -49 36 -49q42 0 136 85q142 127 216 302q74 176 74 303q0 54 -24 114t-64 104q-21 24 -63 50z" />
    <glyph glyph-name="g" unicode="g" horiz-adv-x="615" 
d="M637 490q-57 -97 -129 -202l-9 -14q-7 -37 -114 -327q-76 -206 -110 -276q-64 -124 -181 -219q-48 -38 -89 -53l-78 51q103 52 166 117q79 80 131 210q72 174 107 305q-50 -44 -114 -71t-118 -27q-39 0 -66 27q-28 29 -28 69q0 123 124 277q140 175 339 231q95 27 187 27
q34 0 87 -6l-51 -82q-239 1 -408 -140q-112 -94 -167 -220q-16 -37 -16 -61q0 -29 27 -29q45 0 149 78q102 77 147 181q11 27 25 86z" />
    <glyph glyph-name="h" unicode="h" horiz-adv-x="741" 
d="M705 1429l-452 -1082q63 68 163 147q66 52 112 79q51 30 89 30q31 0 51 -24q17 -19 17 -42q0 -47 -43 -143l-88 -194l-12 -27q-21 -49 -21 -61q0 -18 34 -18q8 0 57 -2q29 -2 93 -2l-58 -90h-145q-97 0 -97 55q0 29 41 133q23 57 88 213q28 65 28 78q0 7 -6 7
q-10 0 -82.5 -59t-140.5 -122q-161 -151 -237 -280l-103 -54l592 1426z" />
    <glyph glyph-name="i" unicode="i" horiz-adv-x="364" 
d="M358 626l-201 -483q-14 -31 -14 -40q0 -15 46 -15h169l-57 -88h-176q-109 0 -109 55q0 20 20 66l203 468zM405 931q38 0 66 -30q28 -29 28 -66q0 -36 -26 -63q-28 -29 -68 -29q-37 0 -65 26q-29 28 -29 67q0 41 29 69q27 26 65 26z" />
    <glyph glyph-name="j" unicode="j" horiz-adv-x="438" 
d="M501 626l-277 -645q-57 -134 -102 -217t-92 -143q-118 -151 -291 -212l-85 51q205 80 313 225q70 94 178 350l130 311q-34 -30 -114 -72q-89 -46 -140 -59l45 105q119 49 197 122q65 60 133 155zM553 932q41 0 68 -32q24 -27 24 -62q0 -38 -27 -65q-27 -28 -66 -28
q-36 0 -63 25q-31 27 -31 68t30 69q27 25 65 25z" />
    <glyph glyph-name="k" unicode="k" horiz-adv-x="621" 
d="M710 1426l-429 -1021q48 51 128 107.5t162 97.5l94 -51q-201 -116 -261 -163q-46 -35 -46 -68q0 -51 34 -161q16 -53 23 -62q11 -15 81 -16q64 -1 91 -3l-60 -86h-99q-55 0 -83 28q-25 25 -57 141q-29 102 -29 164q0 8 1 27l-136 -327l-128 -48l591 1405z" />
    <glyph glyph-name="l" unicode="l" horiz-adv-x="377" 
d="M693 1427l-530 -1263q-16 -37 -16 -52q0 -17 26 -21q8 -1 48 -3h147l-52 -88h-179q-108 0 -108 63q0 25 28 93l514 1234z" />
    <glyph glyph-name="m" unicode="m" horiz-adv-x="1116" 
d="M349 569l-103 -261q259 276 380 276q24 0 42 -15.5t18 -37.5t-25.5 -92.5t-59.5 -144.5q136 137 210 197q114 92 173 92q62 0 62 -68q0 -50 -43 -147l-69 -157q-36 -80 -36 -97q0 -14 18 -20t59 -6h86l-58 -88h-93q-124 0 -124 65q0 31 21 82l45 111l48 110q22 52 22 56
q0 8 -8 8t-19 -10q-5 -5 -26 -20q-169 -138 -280 -260q-36 -41 -69 -86q-15 -22 -25 -34l-121 -44l155 378q32 78 32 98q0 7 -7 7q-17 0 -87 -59t-155 -144q-92 -93 -148 -179q-15 -23 -36 -57l-116 -44l216 548z" />
    <glyph glyph-name="n" unicode="n" horiz-adv-x="770" 
d="M715 85l-56 -85h-121q-100 0 -100 56q0 34 35 119l98 242q5 13 7 16q5 10 5 17q0 9 -7 9q-4 0 -12 -6q-6 -5 -28 -16q-38 -12 -184 -148q-170 -164 -225 -260l-120 -46l224 544l124 43l-106 -258q71 69 163 143q157 125 240 125q24 0 40.5 -15.5t16.5 -38.5
q0 -30 -35 -114l-84 -204l-21 -51q-14 -39 -14 -41q0 -30 65 -29q89 -2 95 -2z" />
    <glyph glyph-name="o" unicode="o" horiz-adv-x="687" 
d="M727 371l-29 -87h-103q-26 -71 -91 -163q-53 -75 -112 -99q-53 -22 -154 -22q-95 0 -144 30q-55 34 -55 121q0 164 117 294q123 137 356 165l38 -82l-27 -5q-132 -24 -180 -47q-104 -50 -166 -158q-42 -73 -42 -138q0 -57 34 -81q23 -15 80 -15q75 0 124 28
q56 33 120 172q-76 6 -76 49q0 41 58 103q52 56 89 56q30 0 44 -39q10 -27 10 -57q0 -8 -2 -25h111z" />
    <glyph glyph-name="p" unicode="p" horiz-adv-x="816" 
d="M245 597l-1 -17q-5 -180 -18 -286q20 19 101 103q101 105 206 158q73 38 132 38q70 0 109 -45q27 -32 27 -81q0 -182 -247 -379h178l-54 -88h-433l57 88q70 0 108 12q86 28 174 133q125 147 125 231q0 39 -44 39q-51 0 -119.5 -46.5t-169.5 -150.5q-128 -131 -216 -268
l-256 -549l-119 -42l302 675q48 173 48 335q0 33 -2 80z" />
    <glyph glyph-name="q" unicode="q" horiz-adv-x="673" 
d="M677 88l-52 -88h-114q38 -82 38 -146q0 -138 -137 -296q-142 -163 -273 -163q-94 0 -94 93q0 143 210 549q-92 -49 -148 -49q-40 0 -66 28q-28 31 -28 75q0 97 75 219q90 147 254 229q131 66 282 66q55 0 91 -3l-53 -82q-10 -1 -59 0q-91 1 -194 -46q-165 -74 -256 -239
q-43 -79 -43 -128q0 -21 19 -21q54 0 149 72q88 66 140 162q9 16 46 100l190 56q-11 -14 -66 -94q-113 -154 -145 -187q-135 -246 -232 -462q-75 -169 -75 -227q0 -23 21 -23q56 0 136 76q160 152 160 301q0 99 -89 153l61 75h252z" />
    <glyph glyph-name="r" unicode="r" horiz-adv-x="478" 
d="M536 560l-42 -82h-37q-69 -46 -137 -126q-109 -127 -109 -202q0 -57 79 -60q40 -2 114 -3l-53 -87h-59q-53 0 -89 9q-39 10 -64.5 45t-25.5 80q0 117 112 251q28 33 88 93h-110l-29 -60l-114 -25l131 278h101l-50 -111h294z" />
    <glyph glyph-name="s" unicode="s" horiz-adv-x="460" 
d="M467 681q-20 -41 -92 -132q25 -112 25 -216q0 -147 -61 -235q-51 -74 -118 -91q-28 -7 -79 -7h-192l51 87h58q118 0 158 27q84 58 84 226q0 49 -13 100q-14 -16 -56 -59q-44 -47 -54 -56h-126l16 17q145 151 201 218q9 11 91 121h107z" />
    <glyph glyph-name="t" unicode="t" horiz-adv-x="390" 
d="M459 884l-121 -315h133l-51 -78h-110l-120 -304l-8 -25q-15 -41 -15 -48q0 -18 27 -22q6 -1 64 -4h92l-58 -88h-151q-94 0 -94 63q0 24 28 93l133 335h-144l49 78h128l109 286z" />
    <glyph glyph-name="u" unicode="u" horiz-adv-x="689" 
d="M695 597q-49 -140 -164 -300q-29 -103 -29 -160q0 -30 15 -40q12 -9 58 -9h64l-51 -88h-79q-82 0 -96 50q-7 24 -7 100q-172 -160 -272 -160q-37 0 -66 28t-29 66q0 48 33 128l147 357l117 28l-167 -402q-24 -68 -24 -78q0 -29 28 -29q16 0 76.5 42t99.5 81q32 33 93 104
q42 124 106 241z" />
    <glyph glyph-name="v" unicode="v" horiz-adv-x="613" 
d="M662 456l-49 -91h-83q-50 -92 -121 -171q-83 -92 -153.5 -145.5t-109.5 -53.5q-55 0 -55 110q0 124 30 275q18 89 42 157l127 52q-50 -119 -70 -191q-35 -130 -35 -254q0 -20 12 -20q18 0 95 75q92 91 137 166q-17 6 -22 9q-14 7 -14 28q0 46 75 108q93 78 125 78
q26 0 26 -28q0 -38 -32 -104h75z" />
    <glyph glyph-name="w" unicode="w" horiz-adv-x="907" 
d="M960 455l-52 -90h-81q-44 -79 -163 -211q-64 -71 -126.5 -116.5t-94.5 -45.5q-52 0 -52 108q0 35 4 95q-45 -55 -95 -99q-119 -105 -163 -105q-50 0 -50 77q0 162 43 334q16 62 46 146l125 63q-6 -15 -40 -101q-39 -98 -64 -235q-18 -100 -18 -128q0 -20 15 -20
q26 0 95 71q16 16 94 109q18 21 33 37q6 62 34 187l177 80q-7 -34 -52 -128q-48 -97 -79 -139q-19 -124 -19 -189q0 -29 20 -29q26 0 112 94q77 83 118 145q-44 3 -44 36q0 30 34 72.5t88 80.5q54 39 81 39q29 0 29 -32q0 -33 -36 -106h81z" />
    <glyph glyph-name="x" unicode="x" horiz-adv-x="554" 
d="M632 597q-99 -120 -335 -350q20 -97 61 -134q31 -25 119 -25h110l-55 -88h-123q-61 -1 -103 29q-46 34 -80 150q-13 -11 -99 -87l-87 -75l-20 -17l-95 28q44 33 128.5 110.5t144.5 140.5q-34 172 -42 271l84 94q1 -66 10.5 -150t21.5 -147q92 86 244 250h116z" />
    <glyph glyph-name="y" unicode="y" horiz-adv-x="632" 
d="M723 597q-92 -167 -172 -265q-30 -70 -107 -276q-106 -279 -161 -379q-64 -116 -136 -177q-74 -62 -193 -108l-84 58q139 60 193 104q111 83 234 374q33 87 65 168q1 4 14 33q-77 -63 -111 -84q-79 -49 -147 -49q-37 0 -65 28q-22 22 -22 51q0 46 57 175l142 319l118 28
l-151 -338q-57 -128 -57 -153q0 -14 14 -14q55 0 162 97q92 82 151 171l84 187z" />
    <glyph glyph-name="z" unicode="z" horiz-adv-x="489" 
d="M87 577q133 26 205 26q98 0 139 -50q34 -43 34 -92q0 -84 -93 -192q-87 -101 -104 -122q33 -25 51 -44q46 -47 46 -100q0 -88 -70.5 -195.5t-205.5 -224.5q-131 -115 -231 -181l-89 33q195 143 337 287q165 168 165 276q0 51 -63 88l-82 -86h-131l25 26q154 161 245 265
q49 56 81 102q24 35 24 70q0 59 -85 59q-88 0 -242 -43z" />
    <glyph glyph-name="braceleft" unicode="{" 
d="M567 520q52 -33 52 -90q0 -51 -36 -139l-153 -369q-40 -96 -40 -128q0 -49 41 -61q31 -9 107 -10l-37 -91q-23 -1 -33 -1q-91 0 -137 33q-54 38 -54 103q0 55 47 169l147 356q31 74 31 117q0 56 -67 79l35 84q57 14 108 55q46 37 89 136l160 387q59 143 149 208
q95 69 231 69q12 0 37 -1l-38 -91q-88 -2 -149 -32q-47 -25 -76 -71q-20 -30 -45 -88l-160 -386q-81 -200 -209 -238z" />
    <glyph glyph-name="bar" unicode="|" 
d="M625 1365h109v-1706h-109v1706z" />
    <glyph glyph-name="braceright" unicode="}" 
d="M660 520q-51 33 -51 90q0 52 36 139l160 387q40 96 40 129q0 49 -41 60q-31 9 -107 11l37 91h32q93 0 138 -33q54 -38 54 -102q0 -56 -47 -170l-155 -373q-30 -74 -30 -118q0 -56 67 -79l-35 -84q-58 -13 -108 -54q-47 -37 -89 -136l-153 -370q-59 -143 -149 -208
q-94 -69 -230 -69q-12 0 -38 1l38 91q88 2 149 32q47 25 77 71q20 30 44 88l153 369q81 199 208 237z" />
    <glyph glyph-name="asciitilde" unicode="~" horiz-adv-x="1365" 
d="M429 1208l-69 44q39 75 76 121q79 98 194 98q79 0 235 -78q105 -51 142 -62q34 -9 64 -9q75 0 127 53q34 35 72 100l70 -42q-111 -215 -281 -215q-33 0 -82 15q-56 17 -201 88q-96 46 -155 46q-105 0 -192 -159z" />
    <glyph glyph-name="Adieresis" unicode="&#xc4;" horiz-adv-x="1375" 
d="M17 448h292q32 149 112 299.5t194 279.5q170 193 364 302q173 98 308 98q131 0 188 -115q35 -72 35 -168q0 -158 -55 -346.5t-170 -428.5q-73 -151 -179 -349l-121 -39q36 64 97.5 186t91.5 190h-778q-13 -64 -13 -170q0 -168 28 -372l-101 55q-27 139 -27 324
q0 82 10 163h-348zM416 448h796q10 24 91 214q48 112 79.5 250t31.5 237q0 86 -37 139q-35 52 -96 52q-132 0 -334 -142q-206 -144 -360 -367q-131 -190 -171 -383zM1441 1654q34 0 56 -28q15 -19 15 -45q0 -30 -21 -51t-51 -21q-29 0 -50 19q-23 21 -23 52q0 34 23 55
q21 19 51 19zM1157 1653q33 0 54 -26q15 -19 15 -45q0 -32 -21 -52q-19 -20 -48 -20t-51 20q-23 21 -23 51q0 32 25 53q20 19 49 19z" />
    <glyph glyph-name="Aring" unicode="&#xc5;" horiz-adv-x="1375" 
d="M17 448h292q32 149 112 299.5t194 279.5q170 193 364 302q173 98 308 98q131 0 188 -115q35 -72 35 -168q0 -158 -55 -346.5t-170 -428.5q-73 -151 -179 -349l-121 -39q36 64 97.5 186t91.5 190h-778q-13 -64 -13 -170q0 -168 28 -372l-101 55q-27 139 -27 324
q0 82 10 163h-348zM416 448h796q10 24 91 214q48 112 79.5 250t31.5 237q0 86 -37 139q-35 52 -96 52q-132 0 -334 -142q-206 -144 -360 -367q-131 -190 -171 -383zM1304 1787q65 0 108 -45q42 -43 42 -107q0 -65 -44 -109q-45 -44 -110 -44q-63 0 -108 43t-45 105
q0 75 50 119q42 38 107 38zM1298 1715q-31 0 -53 -20q-26 -24 -26 -61q0 -35 24 -58q23 -23 57 -23t58 23t24 56q0 37 -22 60q-24 23 -62 23z" />
    <glyph glyph-name="Ccedilla" unicode="&#xc7;" horiz-adv-x="1202" 
d="M1113 93l-92 -93h-321l-38 -86q136 0 136 -128q0 -100 -75 -126q-39 -14 -111 -14h-183l32 65h154q100 0 100 77q0 49 -46 64q-22 7 -66 7h-40l64 141h-116q-178 0 -256 28q-69 24 -106 98q-34 69 -34 156q0 110 53 224.5t166 248.5q294 349 702 544q212 102 361 102
q92 0 138 -50q40 -44 40 -105q0 -207 -300 -465q-242 -208 -462 -311l-113 47q193 99 367 224q236 170 324 302q80 118 80 192q0 38 -30 60q-26 18 -65 18q-177 0 -475 -193q-313 -203 -525 -470q-160 -202 -160 -367q0 -65 32 -112t87 -61q57 -14 228 -17h550z" />
    <glyph glyph-name="Eacute" unicode="&#xc9;" horiz-adv-x="1027" 
d="M1054 93l-84 -93h-691q-71 0 -144 6q-53 5 -93 37q-42 34 -42 89q0 90 105 174q132 105 339 237q74 47 74 67q0 12 -15 42q-66 127 -66 226q0 165 176 319q128 112 285 164q101 34 205 34q114 0 179 -54q60 -51 60 -114q0 -135 -206 -301q-60 -48 -143 -106l-110 37
q153 98 259 205q100 100 100 155q0 43 -47 68q-39 21 -108 21q-196 0 -372 -146q-82 -67 -128.5 -144t-46.5 -144q0 -77 70 -203q27 -48 27 -67q0 -37 -51 -80q-21 -19 -92 -65l-248 -162q-134 -87 -134 -136q0 -64 117 -65q4 1 69 -1h32h724zM1174 1664h107l-107 -155h-106
z" />
    <glyph glyph-name="Ntilde" unicode="&#xd1;" horiz-adv-x="1216" 
d="M1516 1328q-192 -598 -484 -1014q-166 -235 -293 -322q-57 -38 -88 -38q-45 0 -61 66q-12 50 -12 166q0 259 98 583l-16 -25q-87 -141 -153 -239q-85 -123 -215 -270t-258 -265l-116 22q248 254 302 316q132 150 267 345t227 369q35 68 147 306l140 52
q-129 -284 -185 -461q-67 -213 -103 -426q-31 -181 -31 -307q0 -53 3 -65q4 -16 15 -16q17 0 66 50t113 133q228 292 414 725q79 185 148 409zM1443 1636q-34 -115 -126 -115q-23 0 -85 17q-43 12 -62 12q-33 0 -62 -37l-88 4q9 35 29 61q41 53 105 53q28 0 109 -20
q17 -4 31 -4q40 0 62 33z" />
    <glyph glyph-name="Odieresis" unicode="&#xd6;" horiz-adv-x="1404" 
d="M1688 920l-59 -97h-115q-59 -251 -216 -458q-137 -180 -319 -288q-186 -111 -373 -111q-91 0 -174 37t-138 101q-95 111 -95 289q0 343 293 664q152 167 319 254t335 87q219 0 325 -170q66 -105 66 -223q0 -24 -6 -85h157zM1410 823q-43 2 -78 6q-123 12 -123 103
q0 68 83 169q43 53 84 83q-39 53 -76 75q-67 39 -160 39q-295 0 -574 -309q-267 -296 -267 -585q0 -155 82 -246q89 -97 244 -97q211 0 425 184q222 192 324 458q20 53 36 120zM1430 920q7 35 7 65q0 55 -17 101q-93 -77 -93 -124q0 -35 56 -40q4 -1 31 -2h16zM1374 1654
q34 0 56 -28q15 -19 15 -45q0 -30 -21 -51t-51 -21q-29 0 -50 19q-23 21 -23 52q0 34 23 55q21 19 51 19zM1090 1653q33 0 54 -26q15 -19 15 -45q0 -32 -21 -52q-19 -20 -48 -20t-51 20q-23 21 -23 51q0 32 25 53q20 19 49 19z" />
    <glyph glyph-name="Udieresis" unicode="&#xdc;" horiz-adv-x="1276" 
d="M314 1289l87 101q47 6 84 6q118 0 176 -39.5t58 -120.5q0 -47 -13 -98.5t-52 -154.5q-27 -72 -150 -375q-90 -222 -122 -322q-30 -94 -30 -150q0 -41 22 -67q25 -30 67 -30q112 0 278 164q204 202 333 450q37 73 143 330q72 174 175 378l168 65q-30 -90 -130.5 -304
t-163.5 -325q-90 -156 -108 -204q-42 -106 -70 -260q-23 -130 -23 -163q0 -51 26 -67q12 -8 132 -8q69 2 84 2l-54 -97h-135q-67 0 -97 15q-58 29 -58 111q0 76 37 244l-22 -27q-118 -149 -173 -203q-193 -193 -358 -193q-82 0 -133 63q-39 47 -39 111q0 90 42 212
q43 125 212 547q54 134 93 247q17 49 17 90q0 65 -63 82q-31 8 -87 8q-78 0 -153 -18zM1242 1654q34 0 56 -28q15 -19 15 -45q0 -30 -21 -51t-51 -21q-29 0 -50 19q-23 21 -23 52q0 34 23 55q21 19 51 19zM958 1653q33 0 54 -26q15 -19 15 -45q0 -32 -21 -52
q-19 -20 -48 -20t-51 20q-23 21 -23 51q0 32 25 53q20 19 49 19z" />
    <glyph glyph-name="aacute" unicode="&#xe1;" horiz-adv-x="650" 
d="M618 485q-26 -51 -126 -202q-46 -69 -46 -121q0 -56 34 -68q17 -5 82 -6h103l-57 -88h-98q-80 -2 -124 26q-30 22 -43 87q-114 -125 -225 -125q-41 0 -69 29q-30 31 -30 74q0 129 125 285q219 273 582 272l-61 -90q-125 -11 -231 -58q-97 -43 -200 -168
q-116 -141 -116 -219q0 -27 23 -27q46 0 123 68q88 78 135 168q1 3 49 110zM562 919h99l-121 -175h-98z" />
    <glyph glyph-name="agrave" unicode="&#xe0;" horiz-adv-x="650" 
d="M618 485q-26 -51 -126 -202q-46 -69 -46 -121q0 -56 34 -68q17 -5 82 -6h103l-57 -88h-98q-80 -2 -124 26q-30 22 -43 87q-114 -125 -225 -125q-41 0 -69 29q-30 31 -30 74q0 129 125 285q219 273 582 272l-61 -90q-125 -11 -231 -58q-97 -43 -200 -168
q-116 -141 -116 -219q0 -27 23 -27q46 0 123 68q88 78 135 168q1 3 49 110zM542 920l120 -175h-98l-121 175h99z" />
    <glyph glyph-name="acircumflex" unicode="&#xe2;" horiz-adv-x="650" 
d="M618 485q-26 -51 -126 -202q-46 -69 -46 -121q0 -56 34 -68q17 -5 82 -6h103l-57 -88h-98q-80 -2 -124 26q-30 22 -43 87q-114 -125 -225 -125q-41 0 -69 29q-30 31 -30 74q0 129 125 285q219 273 582 272l-61 -90q-125 -11 -231 -58q-97 -43 -200 -168
q-116 -141 -116 -219q0 -27 23 -27q46 0 123 68q88 78 135 168q1 3 49 110zM691 745h-97l-46 118l-104 -119h-102l151 176h127z" />
    <glyph glyph-name="adieresis" unicode="&#xe4;" horiz-adv-x="650" 
d="M618 485q-26 -51 -126 -202q-46 -69 -46 -121q0 -56 34 -68q17 -5 82 -6h103l-57 -88h-98q-80 -2 -124 26q-30 22 -43 87q-114 -125 -225 -125q-41 0 -69 29q-30 31 -30 74q0 129 125 285q219 273 582 272l-61 -90q-125 -11 -231 -58q-97 -43 -200 -168
q-116 -141 -116 -219q0 -27 23 -27q46 0 123 68q88 78 135 168q1 3 49 110zM651 889q34 0 56 -28q15 -19 15 -44q0 -32 -21 -53q-21 -20 -51 -20q-31 0 -52 20.5t-21 50.5q0 33 23 55q21 19 51 19zM442 889q33 0 54 -26q15 -19 15 -45q0 -32 -21 -52q-20 -20 -49 -20
q-28 0 -50 20q-23 21 -23 51q0 31 25 53q21 19 49 19z" />
    <glyph glyph-name="atilde" unicode="&#xe3;" horiz-adv-x="650" 
d="M618 485q-26 -51 -126 -202q-46 -69 -46 -121q0 -56 34 -68q17 -5 82 -6h103l-57 -88h-98q-80 -2 -124 26q-30 22 -43 87q-114 -125 -225 -125q-41 0 -69 29q-30 31 -30 74q0 129 125 285q219 273 582 272l-61 -90q-125 -11 -231 -58q-97 -43 -200 -168
q-116 -141 -116 -219q0 -27 23 -27q46 0 123 68q88 78 135 168q1 3 49 110zM743 875q-33 -115 -116 -115q-26 0 -81 17q-33 10 -50 10q-36 0 -61 -34l-87 4q8 34 27 60q39 53 98 53q27 0 102 -20q16 -4 27 -4q34 0 54 33z" />
    <glyph glyph-name="aring" unicode="&#xe5;" horiz-adv-x="650" 
d="M618 485q-26 -51 -126 -202q-46 -69 -46 -121q0 -56 34 -68q17 -5 82 -6h103l-57 -88h-98q-80 -2 -124 26q-30 22 -43 87q-114 -125 -225 -125q-41 0 -69 29q-30 31 -30 74q0 129 125 285q219 273 582 272l-61 -90q-125 -11 -231 -58q-97 -43 -200 -168
q-116 -141 -116 -219q0 -27 23 -27q46 0 123 68q88 78 135 168q1 3 49 110zM554 956q55 0 91 -38q36 -37 36 -90q0 -55 -38 -93q-37 -37 -92 -37q-54 0 -92 37q-38 36 -38 88q0 63 42 101q36 32 91 32zM549 888q-25 0 -42.5 -18t-17.5 -44t18 -43.5t44 -17.5t44 17.5
t18 42.5q0 28 -17.5 45.5t-46.5 17.5z" />
    <glyph glyph-name="ccedilla" unicode="&#xe7;" horiz-adv-x="534" 
d="M495 88l-54 -88h-117l-30 -73q106 -19 106 -129t-100 -132q-27 -6 -87 -6h-124l31 64h98q99 0 99 77q0 54 -46 67q-21 5 -57 5q-7 0 -18 -1l56 128h-24q-90 0 -128 20q-30 15 -48.5 50.5t-18.5 76.5q0 122 95 248q90 121 224 185q76 37 138 37q41 0 71 -24q27 -23 27 -55
q0 -69 -87 -180h-129q50 44 85.5 88t35.5 62t-24 18q-42 0 -110.5 -42t-121.5 -99q-59 -67 -91 -144q-19 -45 -19 -79q0 -60 57 -69q30 -5 76 -5h235z" />
    <glyph glyph-name="eacute" unicode="&#xe9;" horiz-adv-x="545" 
d="M500 88l-50 -88h-247q-71 0 -108 18q-62 29 -62 115q0 72 36.5 154t100.5 155q86 97 201 155q57 29 109 29q46 0 76 -37q22 -26 22 -59q0 -88 -111 -197q-131 -128 -332 -207q2 -17 24 -28q17 -8 108 -10h233zM154 232q95 34 193 113q57 46 103 113q28 41 28 60
q0 17 -18 17q-33 0 -94 -41t-109 -96q-73 -83 -103 -166zM509 919h99l-121 -175h-98z" />
    <glyph glyph-name="egrave" unicode="&#xe8;" horiz-adv-x="545" 
d="M500 88l-50 -88h-247q-71 0 -108 18q-62 29 -62 115q0 72 36.5 154t100.5 155q86 97 201 155q57 29 109 29q46 0 76 -37q22 -26 22 -59q0 -88 -111 -197q-131 -128 -332 -207q2 -17 24 -28q17 -8 108 -10h233zM154 232q95 34 193 113q57 46 103 113q28 41 28 60
q0 17 -18 17q-33 0 -94 -41t-109 -96q-73 -83 -103 -166zM489 920l120 -175h-98l-121 175h99z" />
    <glyph glyph-name="ecircumflex" unicode="&#xea;" horiz-adv-x="545" 
d="M500 88l-50 -88h-247q-71 0 -108 18q-62 29 -62 115q0 72 36.5 154t100.5 155q86 97 201 155q57 29 109 29q46 0 76 -37q22 -26 22 -59q0 -88 -111 -197q-131 -128 -332 -207q2 -17 24 -28q17 -8 108 -10h233zM154 232q95 34 193 113q57 46 103 113q28 41 28 60
q0 17 -18 17q-33 0 -94 -41t-109 -96q-73 -83 -103 -166zM638 745h-97l-46 118l-104 -119h-102l151 176h127z" />
    <glyph glyph-name="edieresis" unicode="&#xeb;" horiz-adv-x="545" 
d="M500 88l-50 -88h-247q-71 0 -108 18q-62 29 -62 115q0 72 36.5 154t100.5 155q86 97 201 155q57 29 109 29q46 0 76 -37q22 -26 22 -59q0 -88 -111 -197q-131 -128 -332 -207q2 -17 24 -28q17 -8 108 -10h233zM154 232q95 34 193 113q57 46 103 113q28 41 28 60
q0 17 -18 17q-33 0 -94 -41t-109 -96q-73 -83 -103 -166zM598 889q34 0 56 -28q15 -19 15 -44q0 -32 -21 -53q-21 -20 -51 -20q-31 0 -52 20.5t-21 50.5q0 33 23 55q21 19 51 19zM389 889q33 0 54 -26q15 -19 15 -45q0 -32 -21 -52q-20 -20 -49 -20q-28 0 -50 20
q-23 21 -23 51q0 31 25 53q21 19 49 19z" />
    <glyph glyph-name="iacute" unicode="&#xed;" horiz-adv-x="364" 
d="M358 626l-201 -483q-14 -31 -14 -40q0 -15 46 -15h169l-57 -88h-176q-109 0 -109 55q0 20 20 66l203 468zM420 919h99l-121 -175h-98z" />
    <glyph glyph-name="igrave" unicode="&#xec;" horiz-adv-x="364" 
d="M358 626l-201 -483q-14 -31 -14 -40q0 -15 46 -15h169l-57 -88h-176q-109 0 -109 55q0 20 20 66l203 468zM399 920l120 -175h-98l-121 175h99z" />
    <glyph glyph-name="icircumflex" unicode="&#xee;" horiz-adv-x="364" 
d="M358 626l-201 -483q-14 -31 -14 -40q0 -15 46 -15h169l-57 -88h-176q-109 0 -109 55q0 20 20 66l203 468zM548 745h-97l-46 118l-104 -119h-102l151 176h127z" />
    <glyph glyph-name="idieresis" unicode="&#xef;" horiz-adv-x="364" 
d="M358 626l-201 -483q-14 -31 -14 -40q0 -15 46 -15h169l-57 -88h-176q-109 0 -109 55q0 20 20 66l203 468zM468 889q34 0 56 -28q15 -19 15 -44q0 -32 -21 -53q-21 -20 -51 -20q-31 0 -52 20.5t-21 50.5q0 33 23 55q21 19 51 19zM272 889q33 0 54 -26q15 -19 15 -45
q0 -32 -21 -52q-20 -20 -49 -20q-28 0 -50 20q-23 21 -23 51q0 31 25 53q21 19 49 19z" />
    <glyph glyph-name="ntilde" unicode="&#xf1;" horiz-adv-x="770" 
d="M715 85l-56 -85h-121q-100 0 -100 56q0 34 35 119l98 242q5 13 7 16q5 10 5 17q0 9 -7 9q-4 0 -12 -6q-6 -5 -28 -16q-38 -12 -184 -148q-170 -164 -225 -260l-120 -46l224 544l124 43l-106 -258q71 69 163 143q157 125 240 125q24 0 40.5 -15.5t16.5 -38.5
q0 -30 -35 -114l-84 -204l-21 -51q-14 -39 -14 -41q0 -30 65 -29q89 -2 95 -2zM803 875q-33 -115 -116 -115q-26 0 -81 17q-33 10 -50 10q-36 0 -61 -34l-87 4q8 34 27 60q39 53 98 53q27 0 102 -20q16 -4 27 -4q34 0 54 33z" />
    <glyph glyph-name="oacute" unicode="&#xf3;" horiz-adv-x="687" 
d="M727 371l-29 -87h-103q-26 -71 -91 -163q-53 -75 -112 -99q-53 -22 -154 -22q-95 0 -144 30q-55 34 -55 121q0 164 117 294q123 137 356 165l38 -82l-27 -5q-132 -24 -180 -47q-104 -50 -166 -158q-42 -73 -42 -138q0 -57 34 -81q23 -15 80 -15q75 0 124 28
q56 33 120 172q-76 6 -76 49q0 41 58 103q52 56 89 56q30 0 44 -39q10 -27 10 -57q0 -8 -2 -25h111zM581 919h99l-121 -175h-98z" />
    <glyph glyph-name="ograve" unicode="&#xf2;" horiz-adv-x="687" 
d="M727 371l-29 -87h-103q-26 -71 -91 -163q-53 -75 -112 -99q-53 -22 -154 -22q-95 0 -144 30q-55 34 -55 121q0 164 117 294q123 137 356 165l38 -82l-27 -5q-132 -24 -180 -47q-104 -50 -166 -158q-42 -73 -42 -138q0 -57 34 -81q23 -15 80 -15q75 0 124 28
q56 33 120 172q-76 6 -76 49q0 41 58 103q52 56 89 56q30 0 44 -39q10 -27 10 -57q0 -8 -2 -25h111zM561 920l120 -175h-98l-121 175h99z" />
    <glyph glyph-name="ocircumflex" unicode="&#xf4;" horiz-adv-x="687" 
d="M727 371l-29 -87h-103q-26 -71 -91 -163q-53 -75 -112 -99q-53 -22 -154 -22q-95 0 -144 30q-55 34 -55 121q0 164 117 294q123 137 356 165l38 -82l-27 -5q-132 -24 -180 -47q-104 -50 -166 -158q-42 -73 -42 -138q0 -57 34 -81q23 -15 80 -15q75 0 124 28
q56 33 120 172q-76 6 -76 49q0 41 58 103q52 56 89 56q30 0 44 -39q10 -27 10 -57q0 -8 -2 -25h111zM710 745h-97l-46 118l-104 -119h-102l151 176h127z" />
    <glyph glyph-name="odieresis" unicode="&#xf6;" horiz-adv-x="687" 
d="M727 371l-29 -87h-103q-26 -71 -91 -163q-53 -75 -112 -99q-53 -22 -154 -22q-95 0 -144 30q-55 34 -55 121q0 164 117 294q123 137 356 165l38 -82l-27 -5q-132 -24 -180 -47q-104 -50 -166 -158q-42 -73 -42 -138q0 -57 34 -81q23 -15 80 -15q75 0 124 28
q56 33 120 172q-76 6 -76 49q0 41 58 103q52 56 89 56q30 0 44 -39q10 -27 10 -57q0 -8 -2 -25h111zM669 889q34 0 56 -28q15 -19 15 -44q0 -32 -21 -53q-21 -20 -51 -20q-31 0 -52 20.5t-21 50.5q0 33 23 55q21 19 51 19zM460 889q33 0 54 -26q15 -19 15 -45q0 -32 -21 -52
q-20 -20 -49 -20q-28 0 -50 20q-23 21 -23 51q0 31 25 53q21 19 49 19z" />
    <glyph glyph-name="otilde" unicode="&#xf5;" horiz-adv-x="687" 
d="M727 371l-29 -87h-103q-26 -71 -91 -163q-53 -75 -112 -99q-53 -22 -154 -22q-95 0 -144 30q-55 34 -55 121q0 164 117 294q123 137 356 165l38 -82l-27 -5q-132 -24 -180 -47q-104 -50 -166 -158q-42 -73 -42 -138q0 -57 34 -81q23 -15 80 -15q75 0 124 28
q56 33 120 172q-76 6 -76 49q0 41 58 103q52 56 89 56q30 0 44 -39q10 -27 10 -57q0 -8 -2 -25h111zM762 875q-33 -115 -116 -115q-26 0 -81 17q-33 10 -50 10q-36 0 -61 -34l-87 4q8 34 27 60q39 53 98 53q27 0 102 -20q16 -4 27 -4q34 0 54 33z" />
    <glyph glyph-name="uacute" unicode="&#xfa;" horiz-adv-x="689" 
d="M695 597q-49 -140 -164 -300q-29 -103 -29 -160q0 -30 15 -40q12 -9 58 -9h64l-51 -88h-79q-82 0 -96 50q-7 24 -7 100q-172 -160 -272 -160q-37 0 -66 28t-29 66q0 48 33 128l147 357l117 28l-167 -402q-24 -68 -24 -78q0 -29 28 -29q16 0 76.5 42t99.5 81q32 33 93 104
q42 124 106 241zM583 919h99l-121 -175h-98z" />
    <glyph glyph-name="ugrave" unicode="&#xf9;" horiz-adv-x="689" 
d="M695 597q-49 -140 -164 -300q-29 -103 -29 -160q0 -30 15 -40q12 -9 58 -9h64l-51 -88h-79q-82 0 -96 50q-7 24 -7 100q-172 -160 -272 -160q-37 0 -66 28t-29 66q0 48 33 128l147 357l117 28l-167 -402q-24 -68 -24 -78q0 -29 28 -29q16 0 76.5 42t99.5 81q32 33 93 104
q42 124 106 241zM562 920l120 -175h-98l-121 175h99z" />
    <glyph glyph-name="ucircumflex" unicode="&#xfb;" horiz-adv-x="689" 
d="M695 597q-49 -140 -164 -300q-29 -103 -29 -160q0 -30 15 -40q12 -9 58 -9h64l-51 -88h-79q-82 0 -96 50q-7 24 -7 100q-172 -160 -272 -160q-37 0 -66 28t-29 66q0 48 33 128l147 357l117 28l-167 -402q-24 -68 -24 -78q0 -29 28 -29q16 0 76.5 42t99.5 81q32 33 93 104
q42 124 106 241zM711 745h-97l-46 118l-104 -119h-102l151 176h127z" />
    <glyph glyph-name="udieresis" unicode="&#xfc;" horiz-adv-x="689" 
d="M695 597q-49 -140 -164 -300q-29 -103 -29 -160q0 -30 15 -40q12 -9 58 -9h64l-51 -88h-79q-82 0 -96 50q-7 24 -7 100q-172 -160 -272 -160q-37 0 -66 28t-29 66q0 48 33 128l147 357l117 28l-167 -402q-24 -68 -24 -78q0 -29 28 -29q16 0 76.5 42t99.5 81q32 33 93 104
q42 124 106 241zM671 889q34 0 56 -28q15 -19 15 -44q0 -32 -21 -53q-21 -20 -51 -20q-31 0 -52 20.5t-21 50.5q0 33 23 55q21 19 51 19zM462 889q33 0 54 -26q15 -19 15 -45q0 -32 -21 -52q-20 -20 -49 -20q-28 0 -50 20q-23 21 -23 51q0 31 25 53q21 19 49 19z" />
    <glyph glyph-name="dagger" unicode="&#x2020;" horiz-adv-x="887" 
d="M973 1427l-150 -363h304l-41 -98h-304l-540 -1305l-125 -29l553 1334h-305l41 98h304l139 335z" />
    <glyph glyph-name="degree" unicode="&#xb0;" horiz-adv-x="515" 
d="M478 1070q79 0 121 -56q27 -35 27 -81q0 -84 -74 -155q-78 -76 -176 -76q-62 0 -103 41q-38 38 -38 92q0 111 95 183q69 52 148 52zM464 986q-46 0 -86 -36q-47 -44 -47 -104q0 -59 57 -59q61 0 107 53q35 40 35 86q0 60 -66 60z" />
    <glyph glyph-name="cent" unicode="&#xa2;" horiz-adv-x="888" 
d="M866 694l-77 -39q-23 44 -63 52l-183 -435h156l-65 -93h-129l-48 -115h-94l47 115q-13 -1 -20 -1q-49 0 -92 29q-58 39 -58 109q0 145 133 298q94 109 228 161q33 13 63 17l46 115h99l-48 -115q66 -19 105 -98zM625 700q-62 -25 -127 -83q-76 -68 -121 -141t-45 -128
q0 -57 62 -70q30 -7 41 -7q5 0 12 1z" />
    <glyph glyph-name="sterling" unicode="&#xa3;" horiz-adv-x="887" 
d="M729 79l-35 -85q-102 10 -235 10q-106 0 -181 -10q-101 -107 -299 -183l73 166l167 102q26 29 87 207h-169l39 91h159q44 119 76 200q79 193 152 276q93 107 210 107q71 0 117 -41q49 -44 49 -113q0 -109 -84 -246h-112q90 162 90 241q0 27 -18 44t-47 17
q-100 0 -208 -214q-51 -102 -110 -271h172l-39 -91h-165q-34 -112 -83 -207q49 11 159 11q151 0 235 -11z" />
    <glyph glyph-name="section" unicode="&#xa7;" horiz-adv-x="997" 
d="M-88 -248l40 92q43 -31 99 -57q143 -64 285 -64q140 0 226 63q105 78 105 202q0 82 -60 141q-24 23 -64 51q-11 7 -120 70q-214 123 -214 304q0 85 40 158.5t113 122.5q103 69 230 72h43q-79 46 -113 79q-72 70 -72 168q0 143 135 220q92 52 225 52q186 0 355 -95
l-39 -87q-160 84 -339 84q-99 0 -162 -52t-63 -122q0 -87 106 -153q27 -17 90 -52q105 -57 158 -101q119 -99 119 -238q0 -154 -119 -255q-90 -77 -214 -94q-34 -5 -98 -6q85 -47 121 -97q52 -75 52 -169q0 -84 -40 -158.5t-112 -123.5q-113 -76 -280 -76q-155 0 -324 65
q-67 25 -109 56zM494 337q141 -1 231 23q88 24 147 97q53 65 53 151q0 98 -89 168q-35 26 -84 52q-138 -7 -186 -16q-106 -20 -169 -79q-78 -73 -78 -178q0 -97 90 -167q33 -25 85 -51z" />
    <glyph glyph-name="bullet" unicode="&#x2022;" horiz-adv-x="1365" 
d="M857 978q113 0 196 -83q84 -83 84 -201t-83 -201t-201 -83q-116 0 -199 82q-85 84 -85 202q0 121 84 202q86 82 204 82z" />
    <glyph glyph-name="paragraph" unicode="&#xb6;" 
d="M1023 1271l-93 -122q-85 -112 -144 -269l-490 -1249h-101l449 1137q28 66 42 93l-30 -38q-43 -53 -102 -97q-54 -39 -107 -39q-55 0 -87 47q-29 43 -29 120q0 144 77 305q85 177 205 228q94 40 269 40h645l-67 -90h-541q-166 0 -244 -28q-73 -27 -118 -85
q-61 -78 -98 -192q-32 -95 -32 -182q0 -68 29 -68q38 0 107 70q89 90 169 196l200 264zM1236 1271l-138 -182q-53 -69 -79 -113q-24 -44 -48 -110l-486 -1235h-103l496 1259q50 134 145 251l125 168z" />
    <glyph glyph-name="germandbls" unicode="&#xdf;" horiz-adv-x="926" 
d="M-7 -42l388 1007q61 162 107 245q57 101 137.5 157.5t169.5 56.5q113 0 181 -88q50 -64 50 -148q0 -168 -159 -336q-37 -38 -100 -97q104 -293 104 -432q0 -78 -39 -147.5t-107 -114.5q-77 -50 -209 -58q-42 -3 -132 -3h-163l32 88h136q132 1 185 9q79 10 138 68
q64 63 64 153t-44 243q-11 38 -71 205q264 215 264 413q0 54 -38 95q-43 45 -106 45q-121 0 -208 -161q-55 -102 -117 -265l-342 -893z" />
    <glyph glyph-name="registered" unicode="&#xae;" horiz-adv-x="1568" 
d="M1218 1399q224 0 363 -141q137 -138 137 -350q0 -332 -319 -629q-165 -153 -347 -233t-366 -80q-225 0 -364 141q-137 138 -137 348q0 339 319 631q343 313 714 313zM1202 1314q-217 0 -447 -144q-254 -159 -389 -385q-94 -157 -94 -328q0 -176 111 -290
q113 -116 302 -116q343 0 656 291q290 271 290 565q0 180 -111 291q-60 61 -136 88.5t-182 27.5zM1213 369l34 -72h-225q-8 51 -41 135q-27 68 -48 103q-83 12 -133 49q78 46 145 64q22 -22 34 -41q19 -4 34 -4q103 0 198 67q92 64 143 191q31 76 31 134q0 35 -29 35
q-79 0 -303 -174q-157 -122 -245 -224q-28 -33 -134 -175q-93 -120 -136 -159l-110 -17q93 139 280 354q53 57 72 87q31 51 69 148q40 103 40 126q0 25 -43 25q-36 0 -83 -1q-19 -1 -33 -1l-35 74q79 3 165 3q113 0 113 -84q0 -63 -60 -181q92 78 160 129q190 144 301 144
q47 0 72 -38q17 -27 17 -64q0 -77 -35 -163t-94 -155q-76 -89 -176 -121q-51 -16 -136 -28q50 -106 65 -166h126z" />
    <glyph glyph-name="copyright" unicode="&#xa9;" horiz-adv-x="1568" 
d="M1218 1399q224 0 363 -141q137 -138 137 -350q0 -332 -319 -629q-165 -153 -347 -233t-366 -80q-225 0 -364 141q-137 138 -137 348q0 339 319 631q343 313 714 313zM1202 1314q-217 0 -447 -144q-254 -159 -389 -385q-94 -157 -94 -328q0 -176 111 -290
q113 -116 302 -116q343 0 656 291q290 271 290 565q0 180 -111 291q-60 61 -136 88.5t-182 27.5zM1114 369l-74 -72h-302q-110 0 -149 15q-90 34 -90 152q0 122 124 268q169 198 410 311q124 59 210 59q59 0 89 -30q27 -27 27 -67q0 -121 -174 -268q-117 -97 -273 -179
l-89 37q107 49 231 135q128 90 180 165q43 64 43 99q0 38 -50 38q-96 0 -265 -107q-185 -118 -296 -259q-87 -110 -87 -197q0 -74 66 -90q32 -8 130 -10h339z" />
    <glyph glyph-name="trademark" unicode="&#x2122;" horiz-adv-x="1575" 
d="M1224 1350l-44 -77l-218 -33l-272 -679l-95 -24l276 687l-488 -73l44 77l474 74l52 128l97 30l-58 -144zM1822 1389q-136 -237 -205 -416q-77 -202 -77 -290q0 -18 14 -23q12 -4 44 -4h100l-63 -72h-91q-85 0 -85 82q0 112 92 342q-151 -232 -271 -405l-104 -52
q9 38 50 175q63 215 102 345q-168 -318 -413 -547h-107q160 148 265 284q151 193 320 536l103 37q-75 -279 -175 -586l-3 -9q275 419 414 590z" />
    <glyph glyph-name="acute" unicode="&#xb4;" 
d="M749 919h99l-121 -175h-98z" />
    <glyph glyph-name="dieresis" unicode="&#xa8;" 
d="M838 889q34 0 56 -28q15 -19 15 -44q0 -32 -21 -53q-21 -20 -51 -20q-31 0 -52 20.5t-21 50.5q0 33 23 55q21 19 51 19zM629 889q33 0 54 -26q15 -19 15 -45q0 -32 -21 -52q-20 -20 -49 -20q-28 0 -50 20q-23 21 -23 51q0 31 25 53q21 19 49 19z" />
    <glyph glyph-name="notequal" unicode="&#x2260;" horiz-adv-x="887" 
d="M729 830l123 2l-139 -196h237l-41 -98h-265l-104 -148h308l-40 -98h-337l-126 -179h-122l127 179h-263l41 98h291l104 148h-334l41 98h363z" />
    <glyph glyph-name="AE" unicode="&#xc6;" horiz-adv-x="2061" 
d="M2127 93l-80 -93h-675h-38q-84 0 -129 8q-48 10 -88 34l-11 -20l-117 -37l183 373h-776q-14 -85 -14 -185q0 -163 29 -357l-101 58q-27 199 -27 328q0 90 12 156h-350l77 97h288q63 246 215 460q164 231 416 391q193 122 346 122q114 0 173 -85q46 -66 46 -223
q0 -56 -7 -121q67 135 176 221q221 174 458 174q102 0 174 -48q66 -44 66 -121q0 -78 -77 -174q-46 -59 -212 -186l-60 -46l-108 38q138 84 255 200q101 100 101 154q0 52 -50 77q-41 21 -100 21q-170 0 -338 -119q-98 -70 -154 -157.5t-56 -172.5q0 -79 66 -188
q34 -58 34 -86q0 -45 -49 -87q-11 -9 -65 -44l-207 -136q-115 -82 -133 -97q-33 -28 -33 -63q0 -43 51 -54q37 -9 151 -11l35 -1h703zM1210 455q87 173 133 318q72 231 72 380q0 72 -30 125q-35 62 -107 62q-82 0 -195.5 -57.5t-237.5 -161.5q-332 -281 -430 -666h795z
M1475 871q-73 -232 -123 -350q-44 -104 -51 -124q30 19 89 61q72 50 114 75q53 31 53 67q0 21 -24 62q-60 105 -58 209z" />
    <glyph glyph-name="Oslash" unicode="&#xd8;" horiz-adv-x="1404" 
d="M1295 1565l-69 -169q92 -17 154 -63q86 -63 124 -167q28 -79 28 -158q0 -155 -59 -317.5t-167 -308.5q-140 -189 -330 -301q-160 -95 -332 -110l-73 -182h-107l76 182q-99 12 -170 59q-171 114 -171 360q0 279 214 566q227 304 520 405q88 30 186 35l67 169h109z
M1186 1300l-503 -1229q227 25 438 242q157 163 243 372q72 174 72 314q0 75 -31.5 142.5t-85.5 107.5q-52 38 -133 51zM1076 1299q-105 -13 -194 -55.5t-191 -127.5q-165 -138 -275 -325q-119 -201 -119 -400q0 -201 154 -284q55 -30 127 -41z" />
    <glyph glyph-name="infinity" unicode="&#x221e;" horiz-adv-x="1365" 
d="M853 622q-157 -232 -344 -232q-156 0 -240 111q-62 83 -62 199q0 167 125 251q80 54 178 54q187 0 339 -232q154 232 346 232q157 0 240 -115q60 -81 60 -194q0 -148 -95 -232q-85 -75 -204 -75q-144 0 -258 121q-40 43 -85 112zM906 698q39 -60 71 -99q96 -115 209 -115
q93 0 151 68q49 58 49 144q0 113 -77 171q-56 43 -125 43q-118 0 -215 -123q-12 -16 -37.5 -52t-25.5 -37zM795 696q-37 59 -70 99q-97 115 -210 115q-93 0 -150 -68q-49 -58 -49 -144q0 -113 77 -171q56 -43 124 -43q119 0 216 124q12 15 37.5 51t24.5 37z" />
    <glyph glyph-name="plusminus" unicode="&#xb1;" horiz-adv-x="887" 
d="M931 590l-40 -98h-304l-107 -257l-125 -29l119 286h-304l41 98h304l107 258l124 28l-119 -286h304zM749 150l-40 -98h-721l41 98h720z" />
    <glyph glyph-name="lessequal" unicode="&#x2264;" 
d="M1123 1207v-106l-769 -336l769 -336v-106l-887 392v98zM1123 262v-102h-887v102h887z" />
    <glyph glyph-name="greaterequal" unicode="&#x2265;" 
d="M236 323v106l769 336l-769 336v106l887 -395v-97zM236 160v102h887v-102h-887z" />
    <glyph glyph-name="yen" unicode="&#xa5;" horiz-adv-x="887" 
d="M635 527l-57 -64l-20 -48h252l-76 -87h-213l-148 -350l-126 -40l162 390h-244l78 87h202l21 50l-24 62h-228l77 87h118l-112 290l83 56l155 -413l371 415l50 -77l-243 -271h189l-73 -87h-194z" />
    <glyph glyph-name="mu" unicode="&#xb5;" horiz-adv-x="887" 
d="M646 556l147 41q-49 -140 -163 -300q-30 -102 -30 -160q0 -30 15 -40q9 -7 59 -9h64l-51 -88h-80q-58 0 -80 23q-23 22 -23 92v35q-171 -159 -266 -159q-35 0 -53 39l-238 -541l-119 -42l489 1122l117 28l-167 -402q-23 -56 -23 -76q0 -30 26 -30q33 0 127 79
q61 51 144 147q41 124 105 241z" />
    <glyph glyph-name="partialdiff" unicode="&#x2202;" 
d="M358 1277l14 99q161 -24 266 -70q247 -108 377 -364q105 -210 105 -459q0 -187 -80 -310q-65 -100 -171 -153q-89 -44 -187 -44q-154 0 -277 104q-165 139 -165 357q0 150 85 273q66 96 170 144q84 38 175 38q137 0 229 -71q38 -30 89 -100q-5 15 -11 29q-51 138 -81 185
q-96 152 -254 245q-124 74 -284 97zM689 807q-119 0 -213 -82q-57 -49 -91 -129t-34 -164q0 -165 111 -276q94 -93 220 -93q118 0 209 85q118 110 118 297t-114 286q-90 76 -206 76z" />
    <glyph glyph-name="summation" unicode="&#x2211;" horiz-adv-x="1365" 
d="M1377 1536v-452h-101l-8 349h-917l519 -878l-519 -965h936l5 346h104v-448h-1166v116l512 951l-512 870v111h1147z" />
    <glyph glyph-name="product" unicode="&#x220f;" horiz-adv-x="1407" 
d="M241 1536h1262v-102h-160v-1844h160v-102h-440v102h171v1844h-725v-1844h169v-102h-437v102h159v1844h-159v102z" />
    <glyph glyph-name="pi" unicode="&#x3c0;" horiz-adv-x="1129" 
d="M369 0v881h-151v99h1028v-99h-148v-881h-109v881h-511v-881h-109z" />
    <glyph glyph-name="integral" unicode="&#x222b;" 
d="M396 -489l28 97q49 -21 85 -21q92 0 109 84q7 35 7 154v1356q2 122 3 150q4 85 45 135q58 70 169 70q52 0 121 -22l-28 -97q-48 20 -85 20q-92 0 -109 -84q-7 -35 -7 -196v-1313q0 -141 -8 -194q-13 -81 -80 -123q-60 -37 -147 -37q-53 0 -103 21z" />
    <glyph glyph-name="ordfeminine" unicode="&#xaa;" horiz-adv-x="539" 
d="M610 849q-19 -38 -82 -130q-26 -38 -26 -65q0 -32 20 -39q10 -3 51 -3h73l-44 -66h-67q-95 -3 -108 61q-67 -68 -138 -68q-29 0 -49 19.5t-20 47.5q0 101 108 207q134 130 347 129l-46 -66q-81 -6 -146 -34q-56 -23 -119 -96q-67 -78 -67 -123q0 -12 11 -12q43 0 112 80
q29 35 50 84q15 33 17 38z" />
    <glyph glyph-name="ordmasculine" unicode="&#xba;" horiz-adv-x="522" 
d="M691 779l-21 -65h-65q-42 -83 -75 -118q-48 -50 -151 -50q-62 0 -95 19q-39 21 -39 81q0 97 72 173q80 86 231 101l32 -59q-23 -5 -30 -6q-80 -13 -110 -27q-62 -28 -97 -88q-23 -39 -23 -75q0 -34 21 -47q13 -9 47 -9q59 0 87 25q19 17 51 80q-46 5 -46 35q0 27 37 65
q36 37 63 37q41 0 40 -72h71z" />
    <glyph glyph-name="Omega" unicode="&#x2126;" horiz-adv-x="1365" 
d="M226 0v99h397q-397 229 -397 641q0 323 238 519q168 139 387 139t388 -139q237 -196 237 -519q0 -413 -397 -641h397v-99h-529v91q153 87 237 178q180 196 180 460q0 271 -191 444q-139 126 -319 126q-179 0 -317 -115q-199 -167 -199 -454q0 -405 417 -639v-91h-529z
" />
    <glyph glyph-name="ae" unicode="&#xe6;" horiz-adv-x="862" 
d="M817 88l-49 -88h-209q-112 2 -135 18q-29 16 -40 38q-146 -73 -232 -73q-59 0 -101 39q-50 46 -50 117q0 133 185 219q114 54 241 65q4 17 4 29q0 48 -45 57q-18 3 -95 6h-179l47 82h166q115 0 155 -28q43 -30 42 -95q37 50 96 89q110 73 183 73q49 0 80 -41
q19 -26 19 -55q0 -101 -129 -233q-126 -128 -292 -206q21 -10 46 -12q21 -1 91 -1h201zM455 186q81 37 172 106q87 66 135 137q33 49 33 81q0 29 -26 29q-43 0 -135 -73q-124 -99 -179 -280zM402 338q-51 -9 -137 -43q-166 -64 -166 -148q0 -32 22 -53q20 -18 49 -18
q61 0 188 57q-1 14 -1 20q0 48 45 185z" />
    <glyph glyph-name="oslash" unicode="&#xf8;" horiz-adv-x="688" 
d="M560 689l-38 -83q41 -10 66 -36q48 -49 48 -120q0 -132 -95 -280q-86 -136 -206 -161q-31 -6 -79 -9l-37 -88h-85l38 88q-133 24 -133 153q0 137 99 267q126 165 301 186l36 83h85zM481 508l-184 -418q63 5 113 53q43 43 80 125q40 89 40 163q0 60 -49 77zM395 507
q-55 -9 -104 -49q-52 -43 -99 -119q-58 -96 -58 -168q0 -47 40 -69q13 -7 37 -9z" />
    <glyph glyph-name="questiondown" unicode="&#xbf;" horiz-adv-x="897" 
d="M701 -303q-149 -57 -200 -74q-246 -81 -435 -81q-130 0 -201 64q-63 56 -63 143q0 98 84 195q48 56 186 164q175 139 258.5 213.5t140.5 143.5q49 60 99 142l118 21q-59 -121 -134 -215q-79 -98 -192 -193q-92 -78 -252 -201q-212 -164 -212 -266q0 -67 73 -102
q37 -17 101 -17q250 0 648 175zM702 937q40 0 72 -31q35 -35 35 -78q0 -45 -36 -78q-31 -29 -72 -29q-49 0 -83 39q-25 29 -25 67q0 44 31 76q32 34 78 34z" />
    <glyph glyph-name="exclamdown" unicode="&#xa1;" horiz-adv-x="495" 
d="M-74 -389l422 998l117 20l-422 -998zM480 938q40 0 71 -31q33 -33 33 -76q0 -45 -35 -78q-31 -30 -72 -30q-48 0 -83 40q-25 29 -25 65q0 42 28 73q34 37 83 37z" />
    <glyph glyph-name="logicalnot" unicode="&#xac;" 
d="M1014 0v444h-778v102h887v-546h-109z" />
    <glyph glyph-name="radical" unicode="&#x221a;" horiz-adv-x="1365" 
d="M1533 1696v-102h-414l-477 -1594h-126l-186 632h-162v102h251l88 -293q9 -30 33 -126l28 -117l9 -34h6q10 40 49 184l56 211l103 342l235 795h507z" />
    <glyph glyph-name="florin" unicode="&#x192;" horiz-adv-x="887" 
d="M576 496l-127 -229q-79 -141 -153 -245q-71 -101 -166 -157.5t-193 -56.5q-29 0 -65 12l57 101q26 -8 46 -8q122 0 236 161q66 93 162 266l87 156h-164l49 87h163q60 104 98 163q184 283 407 283q29 0 65 -11l-57 -102q-26 8 -46 8q-122 0 -236 -161q-55 -78 -114 -180
h209l-48 -87h-210z" />
    <glyph glyph-name="approxequal" unicode="&#x2248;" 
d="M259 712l-69 44q34 68 76 121q78 98 194 98q79 0 235 -78q105 -51 142 -62q34 -9 64 -9q75 0 127 53q34 35 72 100l70 -41q-111 -216 -281 -216q-33 0 -82 15q-53 16 -77 28l-124 60q-96 46 -155 46q-105 0 -192 -159zM259 395l-69 44q34 68 76 121q78 98 194 98
q79 0 235 -78q105 -51 142 -62q34 -9 64 -9q75 0 127 53q34 35 72 100l70 -41q-111 -216 -281 -216q-33 0 -82 15q-53 16 -77 28l-124 60q-96 46 -155 46q-104 0 -192 -159z" />
    <glyph glyph-name="Delta" unicode="&#x2206;" horiz-adv-x="1365" 
d="M232 0l559 1365h116l562 -1365h-1237zM389 102h921l-460 1130z" />
    <glyph glyph-name="guillemotleft" unicode="&#xab;" horiz-adv-x="513" 
d="M119 0v303l151 325h97l-153 -325v-303h-95zM293 0v303l152 325h96l-154 -325v-303h-94z" />
    <glyph glyph-name="guillemotright" unicode="&#xbb;" horiz-adv-x="513" 
d="M458 628v-303l-151 -325h-97l153 325v303h95zM283 628v-303l-152 -325h-96l154 325v303h94z" />
    <glyph glyph-name="ellipsis" unicode="&#x2026;" horiz-adv-x="1188" 
d="M161 175q46 0 76 -35q23 -28 23 -65q0 -40 -26 -68q-30 -34 -76 -34q-42 0 -72 29q-28 29 -28 69q0 44 27 73q29 31 76 31zM557 175q46 0 76 -35q23 -28 23 -65q0 -40 -26 -68q-31 -34 -76 -34q-42 0 -72 29q-28 29 -28 69q0 44 27 73q29 31 76 31zM953 175q46 0 76 -35
q23 -28 23 -65q0 -40 -26 -68q-30 -34 -76 -34q-42 0 -72 29q-28 28 -28 69q0 44 27 73q29 31 76 31z" />
    <glyph glyph-name="glyph172" horiz-adv-x="887" 
 />
    <glyph glyph-name="Agrave" unicode="&#xc0;" horiz-adv-x="1375" 
d="M17 448h292q32 149 112 299.5t194 279.5q170 193 364 302q173 98 308 98q131 0 188 -115q35 -72 35 -168q0 -158 -55 -346.5t-170 -428.5q-73 -151 -179 -349l-121 -39q36 64 97.5 186t91.5 190h-778q-13 -64 -13 -170q0 -168 28 -372l-101 55q-27 139 -27 324
q0 82 10 163h-348zM416 448h796q10 24 91 214q48 112 79.5 250t31.5 237q0 86 -37 139q-35 52 -96 52q-132 0 -334 -142q-206 -144 -360 -367q-131 -190 -171 -383zM1247 1664l106 -155h-106l-107 155h107z" />
    <glyph glyph-name="Atilde" unicode="&#xc3;" horiz-adv-x="1375" 
d="M17 448h292q32 149 112 299.5t194 279.5q170 193 364 302q173 98 308 98q131 0 188 -115q35 -72 35 -168q0 -158 -55 -346.5t-170 -428.5q-73 -151 -179 -349l-121 -39q36 64 97.5 186t91.5 190h-778q-13 -64 -13 -170q0 -168 28 -372l-101 55q-27 139 -27 324
q0 82 10 163h-348zM416 448h796q10 24 91 214q48 112 79.5 250t31.5 237q0 86 -37 139q-35 52 -96 52q-132 0 -334 -142q-206 -144 -360 -367q-131 -190 -171 -383zM1508 1636q-34 -115 -126 -115q-23 0 -85 17q-43 12 -62 12q-33 0 -62 -37l-88 4q9 35 29 61q41 53 105 53
q28 0 109 -20q17 -4 31 -4q40 0 62 33z" />
    <glyph glyph-name="Otilde" unicode="&#xd5;" horiz-adv-x="1404" 
d="M1688 920l-59 -97h-115q-59 -251 -216 -458q-137 -180 -319 -288q-186 -111 -373 -111q-91 0 -174 37t-138 101q-95 111 -95 289q0 343 293 664q152 167 319 254t335 87q219 0 325 -170q66 -105 66 -223q0 -24 -6 -85h157zM1410 823q-43 2 -78 6q-123 12 -123 103
q0 68 83 169q43 53 84 83q-39 53 -76 75q-67 39 -160 39q-295 0 -574 -309q-267 -296 -267 -585q0 -155 82 -246q89 -97 244 -97q211 0 425 184q222 192 324 458q20 53 36 120zM1430 920q7 35 7 65q0 55 -17 101q-93 -77 -93 -124q0 -35 56 -40q4 -1 31 -2h16zM1441 1636
q-34 -115 -126 -115q-23 0 -85 17q-43 12 -62 12q-33 0 -62 -37l-88 4q9 35 29 61q41 53 105 53q28 0 109 -20q17 -4 31 -4q40 0 62 33z" />
    <glyph glyph-name="OE" unicode="&#x152;" horiz-adv-x="2014" 
d="M2034 93l-80 -93h-690q-123 3 -149.5 5.5t-51.5 13.5q-58 26 -77 97q-92 -52 -152 -74q-106 -41 -214 -41q-215 0 -327 143q-90 116 -90 290q0 286 233 581q158 201 340 307t369 106q233 0 341 -186q28 -48 43 -118q64 69 133 119q206 149 416 149q135 0 203 -63
q47 -44 47 -99q0 -122 -173 -271q-69 -60 -177 -138l-110 38q58 30 138 94t145 132q77 82 77 128q0 43 -49 71q-43 25 -110 25q-187 0 -373 -153q-172 -142 -172 -285q0 -84 68 -197q28 -46 28 -72q0 -36 -43 -74q-28 -25 -104 -71l-243 -161q-64 -42 -85 -60
q-48 -40 -48 -79q0 -51 100 -60q37 -4 154 -4h683zM1467 695q-34 -85 -99 -194q15 10 25 17q14 10 51 35q57 36 57 59q0 9 -7 24q-10 20 -27 59zM1125 1332q-175 0 -372 -146q-206 -152 -338 -378q-114 -197 -114 -385q0 -156 106 -251q89 -79 220 -79q200 0 399 159
q205 164 316 391q100 203 100 373q0 120 -70 217q-72 99 -247 99z" />
    <glyph glyph-name="oe" unicode="&#x153;" horiz-adv-x="975" 
d="M929 88l-47 -88h-236q-81 -1 -115 17q-37 21 -56 71q-45 -43 -96 -67q-47 -23 -148 -23q-192 0 -192 160q0 185 163 338q123 115 261 115q107 0 146 -77q10 -20 24 -61q33 38 71 65q123 88 209 88q39 0 68 -30q28 -28 28 -67q0 -128 -216 -283q-121 -87 -226 -119
q5 -28 39 -35q28 -4 86 -4h237zM584 230q116 41 221 136q45 41 76.5 85t31.5 66q0 20 -21 20q-27 0 -82 -35.5t-102 -82.5q-94 -97 -124 -189zM430 523q-44 0 -101.5 -35t-99.5 -88q-43 -55 -71 -117.5t-28 -104.5q0 -49 45 -75q26 -16 70 -16q116 0 181 70q58 63 88 183
q14 56 14 88q0 95 -98 95z" />
    <glyph glyph-name="endash" unicode="&#x2013;" horiz-adv-x="887" 
d="M789 357l-37 -98h-627l42 98h622z" />
    <glyph glyph-name="emdash" unicode="&#x2014;" horiz-adv-x="841" 
d="M872 357l-37 -98h-839l42 98h834z" />
    <glyph glyph-name="quotedblleft" unicode="&#x201c;" horiz-adv-x="645" 
d="M873 1427l-66 -123q84 -22 84 -92q0 -41 -28 -70q-30 -32 -76 -32q-43 0 -72 30q-28 29 -28 67q0 52 58 154q25 45 35 66h93zM588 1427l-65 -123q84 -23 84 -93q0 -40 -28 -69q-30 -32 -76 -32q-43 0 -72 30q-28 29 -28 66q0 52 58 155q25 46 34 66h93z" />
    <glyph glyph-name="quotedblright" unicode="&#x201d;" horiz-adv-x="645" 
d="M458 1110l66 123q-84 22 -84 92q0 41 28 70q30 32 76 32q43 0 72 -30q28 -29 28 -67q0 -51 -58 -154q-24 -44 -35 -66h-93zM743 1110l66 123q-85 22 -85 92q0 41 28 70q30 32 76 32q43 0 72 -30q28 -29 28 -66q0 -52 -58 -155q-24 -45 -34 -66h-93z" />
    <glyph glyph-name="quoteleft" unicode="&#x2018;" horiz-adv-x="360" 
d="M588 1427l-65 -123q84 -22 84 -92q0 -41 -28 -70q-30 -32 -76 -32q-43 0 -72 30q-28 29 -28 67q0 51 57 154q25 45 35 66h93z" />
    <glyph glyph-name="quoteright" unicode="&#x2019;" horiz-adv-x="360" 
d="M458 1110l66 123q-84 22 -84 92q0 41 28 70q30 32 76 32q43 0 72 -30q28 -29 28 -67q0 -51 -58 -154q-24 -44 -35 -66h-93z" />
    <glyph glyph-name="divide" unicode="&#xf7;" horiz-adv-x="887" 
d="M595 796q42 0 68 -32q21 -25 21 -59t-23 -61q-27 -30 -69 -30q-38 0 -65 26q-25 26 -25 64q0 39 24 64q27 28 69 28zM449 313q42 0 68 -31q21 -26 21 -60t-23 -61q-27 -30 -69 -30q-38 0 -65 26q-25 26 -25 64q0 39 24 64q27 28 69 28zM899 513l-40 -98h-721l41 98h720z
" />
    <glyph glyph-name="lozenge" unicode="&#x25ca;" horiz-adv-x="1365" 
d="M851 1419l531 -736l-531 -736l-532 736zM851 1238l-404 -555l404 -554l403 554z" />
    <glyph glyph-name="ydieresis" unicode="&#xff;" horiz-adv-x="632" 
d="M723 597q-92 -167 -172 -265q-30 -70 -107 -276q-106 -279 -161 -379q-64 -116 -136 -177q-74 -62 -193 -108l-84 58q139 60 193 104q111 83 234 374q33 87 65 168q1 4 14 33q-77 -63 -111 -84q-79 -49 -147 -49q-37 0 -65 28q-22 22 -22 51q0 46 57 175l142 319l118 28
l-151 -338q-57 -128 -57 -153q0 -14 14 -14q55 0 162 97q92 82 151 171l84 187zM642 889q34 0 56 -28q15 -19 15 -44q0 -32 -21 -53q-21 -20 -51 -20q-31 0 -52 20.5t-21 50.5q0 33 23 55q21 19 51 19zM433 889q33 0 54 -26q15 -19 15 -45q0 -32 -21 -52q-20 -20 -49 -20
q-28 0 -50 20q-23 21 -23 51q0 31 25 53q21 19 49 19z" />
    <glyph glyph-name="Ydieresis" unicode="&#x178;" horiz-adv-x="1192" 
d="M1527 1379q-8 -17 -66 -154q-140 -319 -388 -717q-107 -389 -207 -619q-129 -295 -357 -492l-136 12q137 128 182 183q165 192 276 501q69 192 82 226q-69 -81 -124 -134q-191 -185 -370 -185q-102 0 -145 72q-21 34 -21 76q0 70 26 145q67 190 162 417l143 341l26 67
q45 119 45 142q0 31 -34 40q-22 6 -60 6q-67 0 -152 -24l45 97q72 16 136 16q98 0 138 -38q37 -35 37 -79q0 -38 -20 -91q-29 -77 -205 -514q-140 -345 -166 -417q-21 -57 -21 -87q0 -74 86 -74q135 0 348 221q130 135 221 273q83 243 325 693zM1269 1654q34 0 56 -28
q15 -19 15 -45q0 -30 -21 -51t-51 -21q-29 0 -50 19q-23 21 -23 52q0 34 23 55q21 19 51 19zM985 1653q33 0 54 -26q15 -19 15 -45q0 -32 -21 -52q-19 -20 -48 -20t-51 20q-23 21 -23 51q0 32 25 53q20 19 49 19z" />
    <glyph glyph-name="fraction" unicode="&#x2215;" horiz-adv-x="209" 
d="M-177 -116l595 1125l108 22l-597 -1125z" />
    <glyph glyph-name="currency" unicode="&#xa4;" horiz-adv-x="887" 
d="M723 262l69 -96l-76 -63l-65 92q-114 -85 -230 -85q-93 0 -166 66l-85 -72l-57 80l89 75q-19 56 -19 98q0 170 128 317l-63 88l75 64l61 -86q110 78 222 78q104 0 177 -67l87 74l57 -80l-90 -76q19 -51 19 -105q0 -157 -133 -302zM598 723q-54 0 -115 -34t-110 -93
q-90 -106 -90 -228q0 -61 34 -107q40 -56 108 -56q52 0 113.5 31.5t111.5 84.5q49 52 78 117t29 123q0 62 -41 113q-38 49 -118 49z" />
    <glyph glyph-name="guilsinglleft" unicode="&#x2039;" horiz-adv-x="338" 
d="M119 0v303l152 325h96l-154 -325v-303h-94z" />
    <glyph glyph-name="guilsinglright" unicode="&#x203a;" horiz-adv-x="338" 
d="M283 628v-303l-152 -325h-96l154 325v303h94z" />
    <glyph glyph-name="fi" unicode="&#xf001;" horiz-adv-x="953" 
d="M648 597l-58 -86h-206q77 -60 118 -144.5t41 -181.5q0 -149 -85 -331q-105 -225 -246 -341q-123 -101 -213 -101q-52 0 -78 42q-20 31 -20 78q0 88 46 240q27 88 153 425q30 79 111 303q-35 15 -54 21q-44 14 -57 22l37 54h115q129 320 217 520q104 232 121 273l119 37
q-38 -76 -113 -263q-66 -163 -132 -316q-80 -187 -106 -251h290zM299 458q-32 -78 -186 -494q-125 -339 -125 -415q0 -49 36 -49q42 0 136 85q142 127 216 302q74 176 74 303q0 54 -24 114t-64 104q-21 24 -63 50zM948 626l-201 -483q-14 -31 -14 -40q0 -15 45 -15h170
l-58 -88h-175q-109 0 -109 55q0 21 20 66l203 468zM994 931q38 0 66 -30q28 -29 28 -66q0 -36 -26 -63q-28 -29 -68 -29q-37 0 -65 26q-29 28 -29 67q0 41 29 69q27 26 65 26z" />
    <glyph glyph-name="fl" unicode="&#xf002;" horiz-adv-x="973" 
d="M648 597l-58 -86h-206q77 -60 118 -144.5t41 -181.5q0 -149 -85 -331q-105 -225 -246 -341q-123 -101 -213 -101q-52 0 -78 42q-20 31 -20 78q0 88 46 240q27 88 153 425q30 79 111 303q-35 15 -54 21q-44 14 -57 22l37 54h115q129 320 217 520q104 232 121 273l119 37
q-38 -76 -113 -263q-66 -163 -132 -316q-80 -187 -106 -251h290zM299 458q-32 -78 -186 -494q-125 -339 -125 -415q0 -49 36 -49q42 0 136 85q142 127 216 302q74 176 74 303q0 54 -24 114t-64 104q-21 24 -63 50zM1289 1427l-530 -1263q-16 -38 -16 -52q0 -17 27 -21
q7 -1 48 -3h146l-52 -88h-179q-108 0 -108 63q0 25 28 93l514 1234z" />
    <glyph glyph-name="daggerdbl" unicode="&#x2021;" horiz-adv-x="887" 
d="M974 1427l-150 -363h304l-41 -98h-304l-345 -833h304l-40 -98h-304l-156 -376l-124 -28l167 404h-304l41 98h304l344 833h-304l41 98h304l139 335z" />
    <glyph glyph-name="periodcentered" unicode="&#x2219;" horiz-adv-x="396" 
d="M214 401q46 0 76 -35q23 -28 23 -65q0 -40 -26 -68q-30 -34 -76 -34q-42 0 -72 29q-28 28 -28 69q0 44 27 73q29 31 76 31z" />
    <glyph glyph-name="quotesinglbase" unicode="&#x201a;" horiz-adv-x="360" 
d="M57 -141l66 123q-84 22 -84 92q0 41 28 70q30 32 75 32q44 0 73 -30q28 -29 28 -67q0 -51 -58 -154q-25 -45 -35 -66h-93z" />
    <glyph glyph-name="quotedblbase" unicode="&#x201e;" horiz-adv-x="645" 
d="M56 -141l66 123q-84 22 -84 92q0 41 28 70q30 32 76 32q43 0 72 -30q28 -29 28 -67q0 -51 -58 -154q-24 -45 -35 -66h-93zM341 -141l66 123q-85 22 -85 93q0 40 28 69q30 32 76 32q43 0 72 -30q28 -29 28 -66q0 -52 -58 -155q-25 -46 -34 -66h-93z" />
    <glyph glyph-name="perthousand" unicode="&#x2030;" horiz-adv-x="2049" 
d="M538 1004q109 0 170 -87q37 -54 37 -125q0 -114 -86 -222q-119 -149 -270 -149q-88 0 -147 64q-52 58 -52 143q0 128 84 236q68 87 164 122q49 18 100 18zM530 920q-96 0 -181 -101q-73 -86 -73 -183q0 -49 28 -85q34 -44 88 -44q92 0 181 92q86 90 86 190q0 50 -34 92
q-31 39 -95 39zM1166 1120l-636 -1212l-105 -24l635 1212zM1186 570q110 0 170 -87q37 -54 37 -125q0 -114 -86 -222q-118 -149 -269 -149q-89 0 -147 64q-52 58 -52 143q0 128 84 236q109 140 263 140zM1178 486q-95 0 -180 -101q-73 -86 -73 -183q0 -49 28 -85
q34 -44 88 -44q92 0 180 92q86 90 86 190q0 50 -34 92q-31 39 -95 39zM1794 570q110 0 170 -87q37 -54 37 -125q0 -114 -86 -222q-118 -149 -269 -149q-89 0 -147 64q-52 58 -52 143q0 128 84 236q68 88 164 123q48 17 99 17zM1786 486q-95 0 -180 -101q-73 -86 -73 -183
q0 -49 28 -85q34 -44 88 -44q92 0 180 92q86 90 86 190q0 51 -34 92q-31 39 -95 39z" />
    <glyph glyph-name="Acircumflex" unicode="&#xc2;" horiz-adv-x="1375" 
d="M17 448h292q32 149 112 299.5t194 279.5q170 193 364 302q173 98 308 98q131 0 188 -115q35 -72 35 -168q0 -158 -55 -346.5t-170 -428.5q-73 -151 -179 -349l-121 -39q36 64 97.5 186t91.5 190h-778q-13 -64 -13 -170q0 -168 28 -372l-101 55q-27 139 -27 324
q0 82 10 163h-348zM416 448h796q10 24 91 214q48 112 79.5 250t31.5 237q0 86 -37 139q-35 52 -96 52q-132 0 -334 -142q-206 -144 -360 -367q-131 -190 -171 -383zM1444 1509h-103l-40 97l-91 -97h-115l151 154h127z" />
    <glyph glyph-name="Ecircumflex" unicode="&#xca;" horiz-adv-x="1027" 
d="M1054 93l-84 -93h-691q-71 0 -144 6q-53 5 -93 37q-42 34 -42 89q0 90 105 174q132 105 339 237q74 47 74 67q0 12 -15 42q-66 127 -66 226q0 165 176 319q128 112 285 164q101 34 205 34q114 0 179 -54q60 -51 60 -114q0 -135 -206 -301q-60 -48 -143 -106l-110 37
q153 98 259 205q100 100 100 155q0 43 -47 68q-39 21 -108 21q-196 0 -372 -146q-82 -67 -128.5 -144t-46.5 -144q0 -77 70 -203q27 -48 27 -67q0 -37 -51 -80q-21 -19 -92 -65l-248 -162q-134 -87 -134 -136q0 -64 117 -65q4 1 69 -1h32h724zM1271 1509h-103l-40 97
l-91 -97h-115l151 154h127z" />
    <glyph glyph-name="Aacute" unicode="&#xc1;" horiz-adv-x="1375" 
d="M17 448h292q32 149 112 299.5t194 279.5q170 193 364 302q173 98 308 98q131 0 188 -115q35 -72 35 -168q0 -158 -55 -346.5t-170 -428.5q-73 -151 -179 -349l-121 -39q36 64 97.5 186t91.5 190h-778q-13 -64 -13 -170q0 -168 28 -372l-101 55q-27 139 -27 324
q0 82 10 163h-348zM416 448h796q10 24 91 214q48 112 79.5 250t31.5 237q0 86 -37 139q-35 52 -96 52q-132 0 -334 -142q-206 -144 -360 -367q-131 -190 -171 -383zM1328 1664h107l-107 -155h-106z" />
    <glyph glyph-name="Edieresis" unicode="&#xcb;" horiz-adv-x="1027" 
d="M1054 93l-84 -93h-691q-71 0 -144 6q-53 5 -93 37q-42 34 -42 89q0 90 105 174q132 105 339 237q74 47 74 67q0 12 -15 42q-66 127 -66 226q0 165 176 319q128 112 285 164q101 34 205 34q114 0 179 -54q60 -51 60 -114q0 -135 -206 -301q-60 -48 -143 -106l-110 37
q153 98 259 205q100 100 100 155q0 43 -47 68q-39 21 -108 21q-196 0 -372 -146q-82 -67 -128.5 -144t-46.5 -144q0 -77 70 -203q27 -48 27 -67q0 -37 -51 -80q-21 -19 -92 -65l-248 -162q-134 -87 -134 -136q0 -64 117 -65q4 1 69 -1h32h724zM1268 1654q34 0 56 -28
q15 -19 15 -45q0 -30 -21 -51t-51 -21q-29 0 -50 19q-23 21 -23 52q0 34 23 55q21 19 51 19zM984 1653q33 0 54 -26q15 -19 15 -45q0 -32 -21 -52q-19 -20 -48 -20t-51 20q-23 21 -23 51q0 32 25 53q20 19 49 19z" />
    <glyph glyph-name="Egrave" unicode="&#xc8;" horiz-adv-x="1027" 
d="M1054 93l-84 -93h-691q-71 0 -144 6q-53 5 -93 37q-42 34 -42 89q0 90 105 174q132 105 339 237q74 47 74 67q0 12 -15 42q-66 127 -66 226q0 165 176 319q128 112 285 164q101 34 205 34q114 0 179 -54q60 -51 60 -114q0 -135 -206 -301q-60 -48 -143 -106l-110 37
q153 98 259 205q100 100 100 155q0 43 -47 68q-39 21 -108 21q-196 0 -372 -146q-82 -67 -128.5 -144t-46.5 -144q0 -77 70 -203q27 -48 27 -67q0 -37 -51 -80q-21 -19 -92 -65l-248 -162q-134 -87 -134 -136q0 -64 117 -65q4 1 69 -1h32h724zM1073 1664l106 -155h-106
l-107 155h107z" />
    <glyph glyph-name="Iacute" unicode="&#xcd;" horiz-adv-x="944" 
d="M-89 93h157q209 1 266 6q248 20 369 179q62 86 129 255l165 412q9 22 65 182q37 106 37 143q0 56 -54 56q-73 0 -185 -67.5t-205 -166.5q-111 -120 -174 -244q-51 -100 -51 -176q0 -134 139 -341h-116q-35 66 -56 110q-62 135 -62 241q0 114 72 242t208 255
q135 126 270 197q98 51 175 51t118 -52q25 -33 25 -86q0 -54 -19.5 -125t-72.5 -207q-73 -188 -166.5 -402t-132.5 -282q-92 -161 -241 -217t-476 -56h-266zM1112 1664h107l-107 -155h-106z" />
    <glyph glyph-name="Icircumflex" unicode="&#xce;" horiz-adv-x="944" 
d="M-89 93h157q209 1 266 6q248 20 369 179q62 86 129 255l165 412q9 22 65 182q37 106 37 143q0 56 -54 56q-73 0 -185 -67.5t-205 -166.5q-111 -120 -174 -244q-51 -100 -51 -176q0 -134 139 -341h-116q-35 66 -56 110q-62 135 -62 241q0 114 72 242t208 255
q135 126 270 197q98 51 175 51t118 -52q25 -33 25 -86q0 -54 -19.5 -125t-72.5 -207q-73 -188 -166.5 -402t-132.5 -282q-92 -161 -241 -217t-476 -56h-266zM1215 1509h-103l-40 97l-91 -97h-115l151 154h127z" />
    <glyph glyph-name="Idieresis" unicode="&#xcf;" horiz-adv-x="944" 
d="M-89 93h157q209 1 266 6q248 20 369 179q62 86 129 255l165 412q9 22 65 182q37 106 37 143q0 56 -54 56q-73 0 -185 -67.5t-205 -166.5q-111 -120 -174 -244q-51 -100 -51 -176q0 -134 139 -341h-116q-35 66 -56 110q-62 135 -62 241q0 114 72 242t208 255
q135 126 270 197q98 51 175 51t118 -52q25 -33 25 -86q0 -54 -19.5 -125t-72.5 -207q-73 -188 -166.5 -402t-132.5 -282q-92 -161 -241 -217t-476 -56h-266zM1212 1654q34 0 56 -28q15 -19 15 -45q0 -30 -21 -51t-51 -21q-29 0 -50 19q-23 21 -23 52q0 34 23 55q21 19 51 19
zM996 1653q33 0 54 -26q15 -19 15 -45q0 -32 -21 -52q-19 -20 -48 -20t-51 20q-23 21 -23 51q0 32 25 53q20 19 49 19z" />
    <glyph glyph-name="Igrave" unicode="&#xcc;" horiz-adv-x="944" 
d="M-89 93h157q209 1 266 6q248 20 369 179q62 86 129 255l165 412q9 22 65 182q37 106 37 143q0 56 -54 56q-73 0 -185 -67.5t-205 -166.5q-111 -120 -174 -244q-51 -100 -51 -176q0 -134 139 -341h-116q-35 66 -56 110q-62 135 -62 241q0 114 72 242t208 255
q135 126 270 197q98 51 175 51t118 -52q25 -33 25 -86q0 -54 -19.5 -125t-72.5 -207q-73 -188 -166.5 -402t-132.5 -282q-92 -161 -241 -217t-476 -56h-266zM1017 1664l106 -155h-106l-107 155h107z" />
    <glyph glyph-name="Oacute" unicode="&#xd3;" horiz-adv-x="1404" 
d="M1688 920l-59 -97h-115q-59 -251 -216 -458q-137 -180 -319 -288q-186 -111 -373 -111q-91 0 -174 37t-138 101q-95 111 -95 289q0 343 293 664q152 167 319 254t335 87q219 0 325 -170q66 -105 66 -223q0 -24 -6 -85h157zM1410 823q-43 2 -78 6q-123 12 -123 103
q0 68 83 169q43 53 84 83q-39 53 -76 75q-67 39 -160 39q-295 0 -574 -309q-267 -296 -267 -585q0 -155 82 -246q89 -97 244 -97q211 0 425 184q222 192 324 458q20 53 36 120zM1430 920q7 35 7 65q0 55 -17 101q-93 -77 -93 -124q0 -35 56 -40q4 -1 31 -2h16zM1233 1664
h107l-107 -155h-106z" />
    <glyph glyph-name="Ocircumflex" unicode="&#xd4;" horiz-adv-x="1404" 
d="M1688 920l-59 -97h-115q-59 -251 -216 -458q-137 -180 -319 -288q-186 -111 -373 -111q-91 0 -174 37t-138 101q-95 111 -95 289q0 343 293 664q152 167 319 254t335 87q219 0 325 -170q66 -105 66 -223q0 -24 -6 -85h157zM1410 823q-43 2 -78 6q-123 12 -123 103
q0 68 83 169q43 53 84 83q-39 53 -76 75q-67 39 -160 39q-295 0 -574 -309q-267 -296 -267 -585q0 -155 82 -246q89 -97 244 -97q211 0 425 184q222 192 324 458q20 53 36 120zM1430 920q7 35 7 65q0 55 -17 101q-93 -77 -93 -124q0 -35 56 -40q4 -1 31 -2h16zM1377 1509
h-103l-40 97l-91 -97h-115l151 154h127z" />
    <glyph glyph-name="apple" unicode="&#xf000;" horiz-adv-x="1365" 
d="M1152 1416v-20q0 -162 -127 -266q-80 -65 -146 -68q-13 -1 -31 -1q0 141 82 239q91 104 222 116zM1445 935q-65 -49 -98 -92q-67 -84 -67 -192q0 -150 111 -250q34 -31 92 -56q-65 -161 -139 -256q-110 -143 -208 -143q-39 0 -82 18l-83 34q-17 7 -75 7q-73 0 -98 -10
l-87 -35q-41 -17 -79 -17q-54 0 -113.5 43.5t-112.5 123.5q-172 256 -172 526q0 176 100 306q103 135 281 135q67 0 160 -36q68 -26 101 -26q31 0 85 21q71 27 101 35q36 10 87 10q189 0 296 -146z" />
    <glyph glyph-name="Ograve" unicode="&#xd2;" horiz-adv-x="1404" 
d="M1688 920l-59 -97h-115q-59 -251 -216 -458q-137 -180 -319 -288q-186 -111 -373 -111q-91 0 -174 37t-138 101q-95 111 -95 289q0 343 293 664q152 167 319 254t335 87q219 0 325 -170q66 -105 66 -223q0 -24 -6 -85h157zM1410 823q-43 2 -78 6q-123 12 -123 103
q0 68 83 169q43 53 84 83q-39 53 -76 75q-67 39 -160 39q-295 0 -574 -309q-267 -296 -267 -585q0 -155 82 -246q89 -97 244 -97q211 0 425 184q222 192 324 458q20 53 36 120zM1430 920q7 35 7 65q0 55 -17 101q-93 -77 -93 -124q0 -35 56 -40q4 -1 31 -2h16zM1179 1664
l106 -155h-106l-107 155h107z" />
    <glyph glyph-name="Uacute" unicode="&#xda;" horiz-adv-x="1276" 
d="M314 1289l87 101q47 6 84 6q118 0 176 -39.5t58 -120.5q0 -47 -13 -98.5t-52 -154.5q-27 -72 -150 -375q-90 -222 -122 -322q-30 -94 -30 -150q0 -41 22 -67q25 -30 67 -30q112 0 278 164q204 202 333 450q37 73 143 330q72 174 175 378l168 65q-30 -90 -130.5 -304
t-163.5 -325q-90 -156 -108 -204q-42 -106 -70 -260q-23 -130 -23 -163q0 -51 26 -67q12 -8 132 -8q69 2 84 2l-54 -97h-135q-67 0 -97 15q-58 29 -58 111q0 76 37 244l-22 -27q-118 -149 -173 -203q-193 -193 -358 -193q-82 0 -133 63q-39 47 -39 111q0 90 42 212
q43 125 212 547q54 134 93 247q17 49 17 90q0 65 -63 82q-31 8 -87 8q-78 0 -153 -18zM1101 1664h107l-107 -155h-106z" />
    <glyph glyph-name="Ucircumflex" unicode="&#xdb;" horiz-adv-x="1276" 
d="M314 1289l87 101q47 6 84 6q118 0 176 -39.5t58 -120.5q0 -47 -13 -98.5t-52 -154.5q-27 -72 -150 -375q-90 -222 -122 -322q-30 -94 -30 -150q0 -41 22 -67q25 -30 67 -30q112 0 278 164q204 202 333 450q37 73 143 330q72 174 175 378l168 65q-30 -90 -130.5 -304
t-163.5 -325q-90 -156 -108 -204q-42 -106 -70 -260q-23 -130 -23 -163q0 -51 26 -67q12 -8 132 -8q69 2 84 2l-54 -97h-135q-67 0 -97 15q-58 29 -58 111q0 76 37 244l-22 -27q-118 -149 -173 -203q-193 -193 -358 -193q-82 0 -133 63q-39 47 -39 111q0 90 42 212
q43 125 212 547q54 134 93 247q17 49 17 90q0 65 -63 82q-31 8 -87 8q-78 0 -153 -18zM1245 1509h-103l-40 97l-91 -97h-115l151 154h127z" />
    <glyph glyph-name="Ugrave" unicode="&#xd9;" horiz-adv-x="1276" 
d="M314 1289l87 101q47 6 84 6q118 0 176 -39.5t58 -120.5q0 -47 -13 -98.5t-52 -154.5q-27 -72 -150 -375q-90 -222 -122 -322q-30 -94 -30 -150q0 -41 22 -67q25 -30 67 -30q112 0 278 164q204 202 333 450q37 73 143 330q72 174 175 378l168 65q-30 -90 -130.5 -304
t-163.5 -325q-90 -156 -108 -204q-42 -106 -70 -260q-23 -130 -23 -163q0 -51 26 -67q12 -8 132 -8q69 2 84 2l-54 -97h-135q-67 0 -97 15q-58 29 -58 111q0 76 37 244l-22 -27q-118 -149 -173 -203q-193 -193 -358 -193q-82 0 -133 63q-39 47 -39 111q0 90 42 212
q43 125 212 547q54 134 93 247q17 49 17 90q0 65 -63 82q-31 8 -87 8q-78 0 -153 -18zM1048 1664l106 -155h-106l-107 155h107z" />
    <glyph glyph-name="dotlessi" unicode="&#x131;" horiz-adv-x="364" 
d="M358 626l-201 -483q-14 -31 -14 -40q0 -15 46 -15h169l-57 -88h-176q-109 0 -109 55q0 20 20 66l203 468z" />
    <glyph glyph-name="circumflex" unicode="&#x2c6;" 
d="M878 745h-97l-46 118l-104 -119h-102l151 176h127z" />
    <glyph glyph-name="tilde" unicode="&#x2dc;" 
d="M930 875q-33 -115 -116 -115q-26 0 -81 17q-33 10 -50 10q-36 0 -61 -34l-87 4q8 34 27 60q39 53 98 53q27 0 102 -20q16 -4 27 -4q34 0 54 33z" />
    <glyph glyph-name="macron" unicode="&#x2c9;" 
d="M964 853l-38 -77h-427l37 77h428z" />
    <glyph glyph-name="breve" unicode="&#x2d8;" 
d="M949 898q-5 -49 -28 -81q-53 -73 -159 -73q-98 0 -151 68q-26 34 -34 86h81q22 -85 103 -85q85 0 106 85h82z" />
    <glyph glyph-name="dotaccent" unicode="&#x2d9;" 
d="M735 889q33 0 54 -26q15 -19 15 -45q0 -32 -21 -52q-20 -20 -49 -20q-28 0 -50 20q-23 21 -23 51q0 31 25 53q21 19 49 19z" />
    <glyph glyph-name="ring" unicode="&#x2da;" 
d="M741 956q55 0 91 -38q36 -37 36 -90q0 -55 -38 -93q-37 -37 -92 -37q-54 0 -92 37q-38 36 -38 88q0 63 42 101q36 32 91 32zM736 888q-25 0 -42.5 -18t-17.5 -44t18 -43.5t44 -17.5t44 17.5t18 42.5q0 28 -17.5 45.5t-46.5 17.5z" />
    <glyph glyph-name="cedilla" unicode="&#xb8;" 
d="M570 0l-30 -73q106 -19 106 -129t-100 -132q-28 -6 -87 -6h-124l31 64h98q99 0 99 77q0 54 -46 67q-21 5 -57 5q-7 0 -18 -1l56 128h72z" />
    <glyph glyph-name="hungarumlaut" unicode="&#x2dd;" 
d="M639 919h95l-98 -158h-94zM859 919h95l-98 -158h-94z" />
    <glyph glyph-name="ogonek" unicode="&#x2db;" 
d="M608 0q-12 -12 -45 -46q-56 -56 -56 -111q0 -44 47 -54q16 -3 54 -3h56l-37 -74h-47q-61 0 -89 7q-34 8 -54.5 36.5t-20.5 67.5q0 81 92 177h100z" />
    <glyph glyph-name="caron" unicode="&#x2c7;" 
d="M600 919h96l47 -118l104 119h102l-151 -176h-127z" />
    <glyph glyph-name="Lslash" unicode="&#x141;" horiz-adv-x="1061" 
d="M-214 -209l114 191q123 63 243 100q70 109 130 233q55 121 110 243l-250 -59l53 96l239 58q143 319 263 495q109 160 257 229q94 45 176 45q73 0 113 -47q32 -38 32 -93q0 -112 -109 -262q-103 -142 -123 -171h-121q98 127 158 212q98 138 98 201q0 40 -29 58
q-14 8 -34 8q-84 0 -198 -90q-99 -78 -170 -191q-75 -119 -184 -364l258 64l-62 -103l-240 -55l-26 -59q-120 -268 -165 -358q-22 -42 -50 -76q299 9 386 9q277 0 391 -9l-74 -98q-114 13 -453 13q-213 0 -333 -13q-71 -63 -177 -123q-137 -73 -223 -84z" />
    <glyph glyph-name="lslash" unicode="&#x142;" horiz-adv-x="377" 
d="M693 1427l-221 -531l183 51l-64 -96l-158 -43l-270 -644q-16 -37 -16 -52q0 -17 26 -21q8 -1 48 -3h147l-52 -88h-179q-108 0 -108 63q0 25 28 93l259 629l-179 -49l64 95l154 42l216 517z" />
    <glyph glyph-name="Scaron" unicode="&#x160;" horiz-adv-x="1057" 
d="M824 658q77 73 155 147q75 70 164.5 181.5t136.5 192.5q33 56 33 96q0 32 -24.5 51.5t-64.5 19.5q-74 0 -191.5 -47t-235.5 -124q-146 -95 -224 -188.5t-78 -173.5q0 -52 36 -97q59 -73 171 -163q137 -110 197 -184q44 -53 44 -111q0 -132 -139 -210q-62 -35 -153 -41
q-43 -2 -194 -7h-594l82 93h468q166 0 255 12q65 9 116 50q51 40 51 89q0 40 -39 80q-34 36 -92 82q-141 113 -232 212q-81 88 -81 181q0 98 69 199t201 197q175 127 377 195q109 37 210 37q54 0 97 -23q63 -35 63 -109q0 -70 -44.5 -158.5t-140.5 -206.5
q-123 -153 -276 -288zM1135 1663h103l40 -97l91 97h115l-151 -154h-127z" />
    <glyph glyph-name="scaron" unicode="&#x161;" horiz-adv-x="460" 
d="M467 681q-20 -41 -92 -132q25 -112 25 -216q0 -147 -61 -235q-51 -74 -118 -91q-28 -7 -79 -7h-192l51 87h58q118 0 158 27q84 58 84 226q0 49 -13 100q-14 -16 -56 -59q-44 -47 -54 -56h-126l16 17q145 151 201 218q9 11 91 121h107zM318 919h96l47 -118l104 119h102
l-151 -176h-127z" />
    <glyph glyph-name="Zcaron" unicode="&#x17d;" horiz-adv-x="1174" 
d="M270 907l-24 108q208 215 394 328q311 189 604 189q112 0 175 -40t63 -116q0 -176 -279 -547q-126 -166 -294 -348q-26 -28 -190 -200q-35 -37 -35 -62q0 -22 38 -117q179 75 320 75q20 0 61 -2l48 -96q-67 7 -101 7q-142 0 -309 -86q1 -23 1 -40q0 -84 -58 -165.5
t-186 -175.5q-187 -138 -337 -179q-61 -16 -102 -16q-100 0 -100 73q0 98 220 270q112 87 228 155q199 116 219 129l-18 49q-31 86 -31 116q0 40 34 88q20 27 82 94q362 394 518 609q95 132 142 244q29 70 29 109q0 50 -54 72q-30 12 -74 12q-140 0 -324 -68
q-248 -93 -486 -302q-75 -66 -174 -167zM640 -56q-99 -43 -311 -188q-155 -106 -206 -151q-44 -37 -44 -60q0 -24 27 -24q62 0 229 102q188 114 271 232q34 48 34 89zM1112 1745h103l40 -97l91 97h115l-151 -154h-127z" />
    <glyph glyph-name="zcaron" unicode="&#x17e;" horiz-adv-x="489" 
d="M87 577q133 26 205 26q98 0 139 -50q34 -43 34 -92q0 -84 -93 -192q-87 -101 -104 -122q33 -25 51 -44q46 -47 46 -100q0 -88 -70.5 -195.5t-205.5 -224.5q-131 -115 -231 -181l-89 33q195 143 337 287q165 168 165 276q0 51 -63 88l-82 -86h-131l25 26q154 161 245 265
q49 56 81 102q24 35 24 70q0 59 -85 59q-88 0 -242 -43zM264 919h96l47 -118l104 119h102l-151 -176h-127z" />
    <glyph glyph-name="brokenbar" unicode="&#xa6;" 
d="M625 1365h109v-672h-109v672zM625 314h109v-655h-109v655z" />
    <glyph glyph-name="Eth" unicode="&#xd0;" horiz-adv-x="1299" 
d="M220 984l32 113q148 71 408 165q393 143 645 143q147 0 213 -93q52 -72 52 -189q0 -219 -206 -477q-159 -199 -420 -377q-238 -162 -454 -237q-138 -48 -221 -48q-85 0 -85 70q0 56 35 158q53 156 179 457h-195l81 86h150q88 205 138 301l143 50q-19 -41 -84 -178
q-46 -98 -79 -173h278l-83 -86h-234l-15 -36q-192 -456 -192 -508q0 -32 29 -32q69 0 231 71q274 119 540 352q176 155 268.5 310t92.5 295q0 89 -55 142q-46 43 -141 43q-292 0 -1051 -322z" />
    <glyph glyph-name="eth" unicode="&#xf0;" horiz-adv-x="687" 
d="M413 958l147 21l-23 148l93 13l23 -146l149 22l14 -89l-150 -23q13 -113 13 -196q0 -296 -140 -532q-69 -117 -131 -150q-50 -26 -161 -26q-118 0 -164 44q-44 43 -44 118q0 151 117 283q123 138 356 165l18 -84q-146 -19 -225 -71q-82 -54 -129 -137q-42 -75 -42 -148
q0 -86 106 -86t157 45q70 61 132 241q54 156 54 341q0 88 -12 179l-146 -21z" />
    <glyph glyph-name="Yacute" unicode="&#xdd;" horiz-adv-x="1192" 
d="M1527 1379q-8 -17 -66 -154q-140 -319 -388 -717q-107 -389 -207 -619q-129 -295 -357 -492l-136 12q137 128 182 183q165 192 276 501q69 192 82 226q-69 -81 -124 -134q-191 -185 -370 -185q-102 0 -145 72q-21 34 -21 76q0 70 26 145q67 190 162 417l143 341l26 67
q45 119 45 142q0 31 -34 40q-22 6 -60 6q-67 0 -152 -24l45 97q72 16 136 16q98 0 138 -38q37 -35 37 -79q0 -38 -20 -91q-29 -77 -205 -514q-140 -345 -166 -417q-21 -57 -21 -87q0 -74 86 -74q135 0 348 221q130 135 221 273q83 243 325 693zM1128 1664h107l-107 -155
h-106z" />
    <glyph glyph-name="yacute" unicode="&#xfd;" horiz-adv-x="632" 
d="M723 597q-92 -167 -172 -265q-30 -70 -107 -276q-106 -279 -161 -379q-64 -116 -136 -177q-74 -62 -193 -108l-84 58q139 60 193 104q111 83 234 374q33 87 65 168q1 4 14 33q-77 -63 -111 -84q-79 -49 -147 -49q-37 0 -65 28q-22 22 -22 51q0 46 57 175l142 319l118 28
l-151 -338q-57 -128 -57 -153q0 -14 14 -14q55 0 162 97q92 82 151 171l84 187zM553 919h99l-121 -175h-98z" />
    <glyph glyph-name="Thorn" unicode="&#xde;" horiz-adv-x="1253" 
d="M339 1389q116 6 180 6q158 0 196 -24q51 -32 51 -132q0 -73 -20 -160q-2 -6 -61 -242q129 129 219 203q202 167 337 167q93 0 143 -89q28 -51 28 -141q0 -234 -133 -447q-99 -159 -233 -213q-134 -53 -469 -52l-72 94h32q243 4 298.5 7.5t124.5 19.5q147 33 247 211
q101 178 101 369q0 144 -73 144q-95 0 -330 -211q-235 -212 -370 -390q-20 -34 -62 -104q-167 -277 -274 -417l-158 -42q34 59 116 192q154 247 249 386q136 196 161 252q32 70 64 219q31 148 31 233q0 50 -35 65q-26 11 -78 11q-27 0 -140 -3z" />
    <glyph glyph-name="thorn" unicode="&#xfe;" horiz-adv-x="816" 
d="M612 1390l121 37l-453 -1079q24 25 47 49q101 105 206 158q73 38 132 38q70 0 109 -45q27 -32 27 -81q0 -182 -247 -379h178l-54 -88h-433l57 88q70 0 108 12q86 28 174 133q125 147 125 231q0 39 -44 39q-51 0 -119.5 -46.5t-169.5 -150.5q-128 -131 -216 -268
l-256 -549l-119 -42z" />
    <glyph glyph-name="minus" unicode="&#x2212;" horiz-adv-x="887" 
d="M899 513l-40 -98h-721l41 98h720z" />
    <glyph glyph-name="multiply" unicode="&#xd7;" horiz-adv-x="887" 
d="M183 167l-50 85l320 226l-124 213l80 56l125 -212l320 226l49 -84l-320 -227l125 -212l-81 -57l-124 212z" />
    <glyph glyph-name="onesuperior" unicode="&#xb9;" horiz-adv-x="593" 
d="M616 936l-232 -569l-92 -22l232 569z" />
    <glyph glyph-name="twosuperior" unicode="&#xb2;" horiz-adv-x="593" 
d="M267 816q33 30 80 58q104 63 185 63q72 0 111 -49q32 -40 32 -94q0 -120 -132 -231q-70 -60 -221 -137h319l-61 -65h-423q-56 -21 -137 -36l84 101h71q421 196 421 360q0 43 -27 66q-21 17 -49 17q-91 0 -251 -132z" />
    <glyph glyph-name="threesuperior" unicode="&#xb3;" horiz-adv-x="593" 
d="M329 901q102 36 198 36q56 0 98 -25q48 -28 48 -83q0 -39 -28 -72.5t-92 -71.5q68 -38 68 -94q0 -105 -118 -177q-97 -59 -242 -59q-56 0 -115 12l-19 68q73 -16 138 -16q122 0 200 48q36 23 58.5 53.5t22.5 56.5q0 31 -31 51q-20 13 -54 13q-36 0 -112 -14
q-28 -6 -50 -8l54 89q33 -4 54 -4q55 0 114 37q76 49 76 87q0 19 -24 31.5t-60 12.5q-78 0 -211 -46z" />
    <glyph glyph-name="onehalf" unicode="&#xbd;" horiz-adv-x="1395" 
d="M616 936l-232 -569l-92 -22l232 569zM416 -116l595 1125l108 22l-597 -1125zM919 454q33 31 80 59q104 62 186 62q72 0 111 -49q32 -40 32 -94q0 -120 -132 -231q-70 -58 -221 -136h319l-62 -65h-422q-57 -21 -138 -36l85 101h71q421 196 421 360q0 42 -27 65
q-21 17 -49 17q-90 0 -252 -132z" />
    <glyph glyph-name="onequarter" unicode="&#xbc;" horiz-adv-x="1395" 
d="M616 936l-232 -569l-92 -22l232 569zM416 -116l595 1125l108 22l-597 -1125zM1341 186l-41 -63h-126l-46 -114l-98 -51l65 165h-303l42 72l439 351l78 18l-150 -378h140zM1222 428l-306 -242h206z" />
    <glyph glyph-name="threequarters" unicode="&#xbe;" horiz-adv-x="1395" 
d="M329 901q102 36 198 36q56 0 98 -25q48 -28 48 -83q0 -39 -28 -72.5t-92 -71.5q68 -38 68 -94q0 -105 -118 -177q-97 -59 -242 -59q-56 0 -115 12l-19 68q73 -16 138 -16q122 0 200 48q36 23 58.5 53.5t22.5 56.5q0 31 -31 51q-20 13 -54 13q-36 0 -112 -14
q-28 -6 -50 -8l54 89q33 -4 54 -4q55 0 114 37q76 49 76 87q0 19 -24 31.5t-60 12.5q-78 0 -211 -46zM416 -116l595 1125l108 22l-597 -1125zM1341 186l-41 -63h-126l-46 -114l-98 -51l65 165h-303l43 72l438 351l78 18l-150 -378h140zM1223 428l-307 -242h206z" />
    <glyph glyph-name="franc" unicode="&#x20a3;" horiz-adv-x="1231" 
d="M990 441l-33 -74h279l-43 -83h-38q-41 -26 -83 -73q-66 -73 -66 -102q0 -24 56 -24h87l-53 -85h-49q-135 0 -135 87q0 86 110 197h-104l-21 -42l-104 -26l66 140h-145l-142 -352l-121 -37l156 389h-159l77 85h115l168 416h-201q-147 0 -218 -15q-123 -25 -123 -83
q0 -40 67 -122q8 -11 59 -72l-94 -29q-131 137 -131 223q0 62 48 103q75 67 225 76q69 4 149 4h697l-34 -85h-332l-169 -416h239z" />
    <glyph glyph-name="Gbreve" unicode="&#x11e;" horiz-adv-x="1195" 
d="M1567 1649q-4 -45 -28 -74q-53 -66 -167 -66q-174 0 -197 140h81q22 -71 113 -71q65 0 94 28q14 14 22 43h82zM1294 649q-14 -16 -119 -143q-21 -26 -149 -161q-161 -405 -292 -600q-109 -166 -219 -261q-30 -26 -62 -54l-102 36q116 102 159 148q180 187 342 583
q-123 -101 -261 -162.5t-242 -61.5q-55 0 -107 26t-86 70q-53 68 -53 159q0 113 59 250.5t165 270.5q193 240 473 432q204 140 382 199q105 35 182 35q71 0 117 -44q37 -35 37 -86q0 -106 -96.5 -245.5t-279.5 -295.5q-219 -189 -366 -267l-115 43q309 180 529 396
q139 138 212 277q27 51 27 77q0 31 -25 50q-22 17 -50 17q-51 0 -145 -35t-182 -87q-181 -107 -344.5 -245.5t-274.5 -278.5q-204 -259 -204 -452q0 -79 44 -122q43 -41 122 -41q154 0 377 153q161 110 240 225q48 68 114 183z" />
    <glyph glyph-name="gbreve" unicode="&#x11f;" horiz-adv-x="615" 
d="M745 898q-5 -49 -28 -81q-53 -73 -159 -73q-98 0 -151 68q-26 34 -34 86h81q22 -85 103 -85q85 0 106 85h82zM637 490q-57 -97 -129 -202l-9 -14q-7 -37 -114 -327q-76 -206 -110 -276q-64 -124 -181 -219q-48 -38 -89 -53l-78 51q103 52 166 117q79 80 131 210
q72 174 107 305q-50 -44 -114 -71t-118 -27q-39 0 -66 27q-28 29 -28 69q0 123 124 277q140 175 339 231q95 27 187 27q34 0 87 -6l-51 -82q-239 1 -408 -140q-112 -94 -167 -220q-16 -37 -16 -61q0 -29 27 -29q45 0 149 78q102 77 147 181q11 27 25 86z" />
    <glyph glyph-name="Idot" unicode="&#x130;" horiz-adv-x="944" 
d="M1072 1653q33 0 54 -26q15 -19 15 -45q0 -32 -21 -52q-19 -20 -48 -20t-51 20q-23 21 -23 51q0 32 25 53q20 19 49 19zM-89 93h157q209 1 266 6q248 20 369 179q62 86 129 255l165 412q9 22 65 182q37 106 37 143q0 56 -54 56q-73 0 -185 -67.5t-205 -166.5
q-111 -120 -174 -244q-51 -100 -51 -176q0 -134 139 -341h-116q-35 66 -56 110q-62 135 -62 241q0 114 72 242t208 255q135 126 270 197q98 51 175 51t118 -52q25 -33 25 -86q0 -54 -19.5 -125t-72.5 -207q-73 -188 -166.5 -402t-132.5 -282q-92 -161 -241 -217t-476 -56
h-266z" />
    <glyph glyph-name="Scedilla" unicode="&#x15e;" horiz-adv-x="1057" 
d="M408 0l-36 -87q135 1 135 -127q0 -111 -100 -133q-26 -6 -86 -6h-182l31 64h155q99 0 99 76q0 54 -46 67q-19 5 -70 5h-34l62 141h-473l82 93h468q166 0 255 12q65 9 116 50q51 40 51 89q0 40 -39 80q-34 36 -92 82q-141 113 -232 212q-81 88 -81 181q0 98 69 199
t201 197q175 127 377 195q109 37 210 37q54 0 97 -23q63 -35 63 -109q0 -70 -44.5 -158.5t-140.5 -206.5q-123 -153 -276 -288l-123 16q77 73 155 147q75 70 164.5 181.5t136.5 192.5q33 56 33 96q0 32 -24.5 51.5t-64.5 19.5q-74 0 -191.5 -47t-235.5 -124
q-146 -95 -224 -188.5t-78 -173.5q0 -52 36 -97q59 -73 171 -163q137 -110 197 -184q44 -53 44 -111q0 -132 -139 -210q-62 -35 -153 -41q-43 -2 -194 -7h-49z" />
    <glyph glyph-name="scedilla" unicode="&#x15f;" horiz-adv-x="460" 
d="M96 0l-30 -73q106 -19 106 -129t-100 -132q-28 -6 -87 -6h-124l31 64h98q99 0 99 77q0 54 -46 67q-21 5 -57 5q-7 0 -18 -1l56 128h-74l51 87h58q117 0 157 27q84 58 84 226q0 49 -12 100q-14 -16 -56 -59q-44 -47 -54 -56h-127l17 17q145 151 201 218q9 11 91 121h107
q-20 -41 -92 -132q24 -112 24 -215q0 -149 -61 -236q-51 -74 -118 -91q-27 -7 -79 -7h-45z" />
    <glyph glyph-name="Cacute" unicode="&#x106;" horiz-adv-x="1203" 
d="M1460 1664h107l-107 -155h-106zM1114 93l-93 -93h-511q-188 0 -252 26q-143 57 -143 253q0 112 51.5 224.5t164.5 247.5q290 347 706 549q211 102 355 102q95 0 142 -50q41 -44 41 -108q0 -207 -299 -463q-209 -180 -460 -312l-113 48q164 81 366 225q231 166 322 302
q81 120 81 191q0 38 -31 60q-27 18 -67 18q-174 0 -473 -195q-328 -213 -526 -468q-160 -206 -160 -369q0 -64 33 -110t88 -60q59 -15 229 -18h549z" />
    <glyph glyph-name="cacute" unicode="&#x107;" horiz-adv-x="534" 
d="M504 919h99l-121 -175h-98zM495 88l-54 -88h-213q-90 0 -128 20q-30 15 -48.5 50.5t-18.5 76.5q0 122 95 248q90 121 224 185q76 37 138 37q41 0 71 -24q27 -23 27 -55q0 -69 -87 -180h-129q50 44 85.5 88t35.5 62t-24 18q-42 0 -110.5 -42t-121.5 -99q-59 -67 -91 -144
q-19 -45 -19 -79q0 -60 57 -69q30 -5 76 -5h235z" />
    <glyph glyph-name="Ccaron" unicode="&#x10c;" horiz-adv-x="1203" 
d="M1263 1663h103l40 -97l91 97h115l-151 -154h-127zM1114 93l-93 -93h-511q-188 0 -252 26q-143 57 -143 253q0 112 51.5 224.5t164.5 247.5q290 347 706 549q211 102 355 102q95 0 142 -50q41 -44 41 -108q0 -207 -299 -463q-209 -180 -460 -312l-113 48q164 81 366 225
q231 166 322 302q81 120 81 191q0 38 -31 60q-27 18 -67 18q-174 0 -473 -195q-328 -213 -526 -468q-160 -206 -160 -369q0 -64 33 -110t88 -60q59 -15 229 -18h549z" />
    <glyph glyph-name="ccaron" unicode="&#x10d;" horiz-adv-x="534" 
d="M355 919h96l47 -118l104 119h102l-151 -176h-127zM495 88l-54 -88h-213q-90 0 -128 20q-30 15 -48.5 50.5t-18.5 76.5q0 122 95 248q90 121 224 185q76 37 138 37q41 0 71 -24q27 -23 27 -55q0 -69 -87 -180h-129q50 44 85.5 88t35.5 62t-24 18q-42 0 -110.5 -42
t-121.5 -99q-59 -67 -91 -144q-19 -45 -19 -79q0 -60 57 -69q30 -5 76 -5h235z" />
    <glyph glyph-name="dmacron" unicode="&#x111;" horiz-adv-x="833" 
d="M781 1135l104 253l121 31l-121 -284h172l-43 -75h-160l-350 -823q-44 -104 -44 -126q0 -17 27 -19q20 -2 74 -2h116l-52 -90h-135q-100 2 -121 15q-29 19 -29 56q0 6 1 19q-34 -39 -74 -58q-79 -39 -137 -39q-54 0 -82 43q-15 23 -15 62q0 86 69 200q92 150 233 243
q108 72 203 79l-57 -107q-151 -61 -253 -198q-97 -130 -97 -197q0 -25 24 -25q32 0 101 41q93 56 150 141q39 58 90 181l250 604h-208l40 75h203z" />
    <glyph glyph-name="nbspace" unicode="&#xa0;" horiz-adv-x="512" 
 />
    <glyph glyph-name="sfthyphen" unicode="&#xad;" horiz-adv-x="299" 
d="M330 357l-37 -98h-297l42 98h292z" />
    <glyph glyph-name="overscore" unicode="&#xaf;" 
d="M168 1745h1024v-99h-1024v99z" />
    <glyph glyph-name="middot" unicode="&#xb7;" horiz-adv-x="396" 
d="M214 401q46 0 76 -35q23 -28 23 -65q0 -40 -26 -68q-30 -34 -76 -34q-42 0 -72 29q-28 28 -28 69q0 44 27 73q29 31 76 31z" />
    <glyph glyph-name="glyph262" 
d="M797 889q34 0 56 -28q15 -19 15 -44q0 -32 -21 -53q-21 -20 -51 -20q-31 0 -52 20.5t-21 50.5q0 33 23 55q21 19 51 19zM601 889q33 0 54 -26q15 -19 15 -45q0 -32 -21 -52q-20 -20 -49 -20q-28 0 -50 20q-23 21 -23 51q0 31 25 53q21 19 49 19z" />
    <glyph glyph-name="glyph263" 
d="M900 1663h103l40 -97l91 97h115l-151 -154h-127z" />
    <glyph glyph-name="glyph264" 
d="M1263 1649q-4 -45 -28 -74q-53 -66 -167 -66q-174 0 -197 140h81q22 -71 113 -71q65 0 94 28q14 14 22 43h82z" />
    <glyph glyph-name="glyph265" 
d="M1187 1509h-103l-40 97l-91 -97h-115l151 154h127z" />
    <glyph glyph-name="glyph266" 
d="M989 1664l106 -155h-106l-107 155h107z" />
    <glyph glyph-name="glyph267" 
d="M1043 1664h107l-107 -155h-106z" />
    <glyph glyph-name="glyph268" 
d="M1184 1654q34 0 56 -28q15 -19 15 -45q0 -30 -21 -51t-51 -21q-29 0 -50 19q-23 21 -23 52q0 34 23 55q21 19 51 19zM900 1653q33 0 54 -26q15 -19 15 -45q0 -32 -21 -52q-19 -20 -48 -20t-51 20q-23 21 -23 51q0 32 25 53q20 19 49 19z" />
    <glyph glyph-name="glyph269" 
d="M1251 1636q-34 -115 -126 -115q-23 0 -85 17q-43 12 -62 12q-33 0 -62 -37l-88 4q9 35 29 61q41 53 105 53q28 0 109 -20q17 -4 31 -4q40 0 62 33z" />
    <glyph glyph-name="glyph270" 
d="M1253 1654q34 0 56 -28q15 -19 15 -45q0 -30 -21 -51t-51 -21q-29 0 -50 19q-23 21 -23 52q0 34 23 55q21 19 51 19zM1037 1653q33 0 54 -26q15 -19 15 -45q0 -32 -21 -52q-19 -20 -48 -20t-51 20q-23 21 -23 51q0 32 25 53q20 19 49 19z" />
    <glyph glyph-name="glyph271" 
d="M1129 1787q65 0 108 -45q42 -43 42 -107q0 -65 -44 -109q-45 -44 -110 -44q-63 0 -108 43t-45 105q0 75 50 119q42 38 107 38zM1123 1715q-31 0 -53 -20q-26 -24 -26 -61q0 -35 24 -58q23 -23 57 -23t58 23t24 56q0 37 -22 60q-24 23 -62 23z" />
    <glyph glyph-name="glyph272" 
d="M1044 1653q33 0 54 -26q15 -19 15 -45q0 -32 -21 -52q-19 -20 -48 -20t-51 20q-23 21 -23 51q0 32 25 53q20 19 49 19z" />
    <glyph glyph-name="glyph273" horiz-adv-x="512" 
 />
    </font>
</defs>
</svg>
