<svg xmlns="http://www.w3.org/2000/svg" viewBox="0 0 400 400"><filter id="B" primitiveUnits="userSpaceOnUse"><feFlood flood-opacity=".7"/>
<feComposite in2="SourceAlpha" operator="out"/><feOffset dx="-2" dy="2"/><feGaussianBlur stdDeviation="3 3"/><feComposite in2="SourceAlpha" operator="in" result="E"/><feMerge><feMergeNode in="SourceGraphic"/><feMergeNode in="E"/></feMerge></filter><filter id="C" width="200%" height="200%"><feGaussianBlur in="SourceAlpha" stdDeviation="25" result="A"/><feOffset dy="10" dx="10"/><feComposite in2="SourceAlpha" operator="arithmetic" k2="-1" k3="1" result="B"/><feFlood flood-color="#bdf" flood-opacity="1"/><feComposite in2="B" operator="in"/><feComposite in2="SourceGraphic" result="C"/><feOffset in="A" dy="-25" dx="-25"/><feComposite in2="SourceAlpha" operator="arithmetic" k2="-1" k3="1" result="F"/><feFlood flood-opacity="1"/><feComposite in2="F" operator="in"/><feComposite in2="C"/></filter><g filter="url(#C)"><circle fill-rule="evenodd" fill="#04d" cx="200" cy="200" r="198"/></g><g filter="url(#B)"><path fill-rule="evenodd" fill="#fff" d="M227.63 93.483c5.3-4.36 9.74-7.49 13.3-9.37 8.9-4.5 17.81-7.01 26.71-7.54 19.9-1.15 36.45 5.81 49.65 20.89 12.99 14.98 19.53 34.15 19.64 57.51.1 23.36-5.81 43.52-17.75 60.5-13.51 18.96-31.74 28.49-54.68 28.6-6.28.1-12.99-1.15-20.11-3.77-5.93-2.09-11.52-5.27-16.76-9.53 0-.03-.01-.05-.05-.053a.86.86 0 0 0-.2-.157l-4.97-3.876v90.305h-44.786v-14.718l-5.08 4.137c-.03 0-.06.01-.1.054l-.05.052c-5.2 4.36-9.63 7.49-13.3 9.37-8.9 4.5-17.81 7.01-26.71 7.54-19.9 1.15-36.45-5.81-49.65-20.89-12.88-14.98-19.43-34.15-19.64-57.51-.1-23.36 5.81-43.52 17.75-60.5 13.51-18.96 31.79-28.49 54.84-28.6 6.07 0 12.67 1.2 19.8 3.61.1.1.2.15.31.15 5.83 2.09 11.36 5.27 16.6 9.533l.05.053h.053l5.13 3.98V83.164h44.786v14.562l5.13-4.08.05-.105c.03 0 .05-.01.05-.053zm-3.14 34.15l-2.09 1.571v68.881l2.09 1.101a84.86 84.86 0 0 0 10.31 4.505c5.76 2.2 12.31 3.24 19.64 3.14 11.1-.1 20-4.76 26.71-13.98 6.18-8.48 9.27-19.43 9.27-32.84 0-12.88-3.03-23.25-9.11-31.11-6.28-8.69-14.98-13.04-26.08-13.04-5.23 0-11.1 1.51-17.6 4.55-4.85 2.16-9.23 4.57-13.14 7.228zM144.76 284.15c5.34 0 11.26-1.51 17.75-4.55 4.89-2.34 9.21-4.76 12.99-7.281l2.09-1.571v-68.829l-2.09-1.048a76.3 76.3 0 0 0-10.31-4.558c-5.76-2.2-12.31-3.24-19.64-3.14-11.1.1-19.95 4.76-26.55 13.98-6.28 8.48-9.42 19.43-9.42 32.84 0 12.88 3.03 23.25 9.11 31.11 6.28 8.69 14.98 13.04 26.08 13.04z"/></g></svg>
