<svg xmlns="http://www.w3.org/2000/svg" viewBox="24 12 232 256" fill="none" shape-rendering="auto">
    <metadata xmlns:rdf="http://www.w3.org/1999/02/22-rdf-syntax-ns#" xmlns:xsi="http://www.w3.org/2001/XMLSchema-instance" xmlns:dc="http://purl.org/dc/elements/1.1/" xmlns:dcterms="http://purl.org/dc/terms/">
        <rdf:RDF>
            <rdf:Description>
                <dc:title>Avataaars</dc:title>
                <dc:creator>Pablo Stanley</dc:creator>
                <dc:description>An &#x201E;Avataaars&#x201D; based avatar resembling Danny Pesses, generated via the DiceBear Editor (https://editor.dicebear.com/)</dc:description>
                <dc:source xsi:type="dcterms:URI">https://avataaars.com/</dc:source>
                <dcterms:license xsi:type="dcterms:URI">https://avataaars.com/</dcterms:license>
                <dc:rights>Remix of &#x201E;Avataaars&#x201D; (https://avataaars.com/) by &#x201E;Pablo Stanley&#x201D;, licensed under &#x201E;Free for personal and commercial use&#x201D; (https://avataaars.com/)</dc:rights>
            </rdf:Description>
        </rdf:RDF>
    </metadata>
    <g transform="translate(8)" id="avatar">
        <g id="body">
            <path d="M132 32a56 56 0 0 0-56 56v6.17A12 12 0 0 0 66 110v14a12 12 0 0 0 10.3 11.88 56.04 56.04 0 0 0 31.7 44.73v18.4h-4a72 72 0 0 0-71 72v8h198v-8a72 72 0 0 0-71-72h-4v-18.39a56.04 56.04 0 0 0 31.7-44.73A12 12 0 0 0 198 124v-14a12 12 0 0 0-10-11.83V92a56 56 0 0 0-56-60Z" fill="#ffdbb4"/>
            <path d="M108 180.61v8a55.79 55.79 0 0 0 24 5.39c8.59 0 16.73-1.93 24-5.39v-8a55.79 55.79 0 0 1-24 5.39 55.79 55.79 0 0 1-24-5.39Z" fill="#000" fill-opacity=".1"/>
        </g>
        <g transform="translate(0 170)" id="jacket">
            <path d="M108 14.7c-15.52 3.68-27.1 10.83-30.77 19.44A72.02 72.02 0 0 0 32 101v9h200v-9a72.02 72.02 0 0 0-45.23-66.86C183.1 25.53 171.52 18.38 156 14.7V32a24 24 0 1 1-48 0V14.7Z" fill="#25557c"/>
            <path d="M102 63.34a67.1 67.1 0 0 1-7-2.82V110h7V63.34ZM162 63.34a67.04 67.04 0 0 0 7-2.82V98.5a3.5 3.5 0 1 1-7 0V63.34Z" fill="#F4F4F4"/>
            <path d="M187.62 34.49a71.79 71.79 0 0 1 10.83 5.63C197.11 55.62 167.87 68 132 68c30.93 0 56-13.43 56-30 0-1.19-.13-2.36-.38-3.51ZM76.38 34.49a16.48 16.48 0 0 0-.38 3.5c0 16.58 25.07 30 56 30-35.87 0-65.1-12.38-66.45-27.88a71.79 71.79 0 0 1 10.83-5.63Z" fill="#000" fill-opacity=".16"/>
        </g>
        <g transform="translate(78 134)" id="mouth">
            <path fill-rule="evenodd" clip-rule="evenodd" d="M35.12 15.13a19 19 0 0 0 37.77-.09c.08-.77-.77-2.04-1.85-2.04H37.1C36 13 35 14.18 35.12 15.13Z" fill="#000" fill-opacity=".7"/>
            <path d="M70 13H39a5 5 0 0 0 5 5h21a5 5 0 0 0 5-5Z" fill="#fff"/>
            <path d="M66.7 27.14A10.96 10.96 0 0 0 54 25.2a10.95 10.95 0 0 0-12.7 1.94A18.93 18.93 0 0 0 54 32c4.88 0 9.33-1.84 12.7-4.86Z" fill="#FF4F6D"/>
        </g>
        <g transform="translate(104 122)" id="nose">
            <path fill-rule="evenodd" clip-rule="evenodd" d="M16 8c0 4.42 5.37 8 12 8s12-3.58 12-8" fill="#000" fill-opacity=".16"/>
        </g>
        <g transform="translate(76 90)" id="eyes">
            <g class="right-eye" fill="#000" fill-opacity="0.6">
                <path d="M36 22a6 6 0 1 1-12 0 6 6 0 0 1 12 0Z" />
            </g>
            <g class="left-eye open" fill="#000" fill-opacity="0.6">
                <path d="M88 22a6 6 0 1 1-12 0 6 6 0 0 1 12 0Z" />
            </g>
            <g class="left-eye wink" fill="#000" fill-opacity="0">
                <path fill-rule="evenodd" clip-rule="evenodd" d="M70.6 24.96c1.59-3.92 5.55-6.86 10.37-7.2 4.8-.33 9.12 2 11.24 5.64.63 1.09-.1 2.06-.93 1.43-2.6-1.93-6.15-3-10-2.73A15.13 15.13 0 0 0 71.95 26c-.84.78-1.81.1-1.35-1.04Z"/>
            </g>
        </g>
        <g transform="translate(76 82)" id="brows">
            <path d="M15.63 17.16c3.92-5.51 14.65-8.6 23.9-6.33a2 2 0 1 0 .95-3.88c-10.74-2.64-23.17.94-28.11 7.9a2 2 0 0 0 3.26 2.3ZM96.37 17.16c-3.91-5.51-14.65-8.6-23.9-6.33a2 2 0 1 1-.95-3.88c10.74-2.64 23.17.94 28.11 7.9a2 2 0 0 1-3.26 2.3Z" fill="#421" fill-opacity=".75"/>
        </g>
        <g transform="translate(-1)" id="hair">
            <path fill-rule="evenodd" clip-rule="evenodd" d="M180.15,44.92
c -2.76,-2.82 -5.96,-5.21 -9.08,-7.61 -0.69,-0.53 -1.39,-1.05 -2.06,-1.6 -0.15,-0.12 -1.72,-1.24 -1.9,-1.66 -0.45,-0.99 -0.19,-0.22 -0.12,-1.4 0.08,-1.5 3.13,-5.73 0.85,-6.7 -1,-0.43 -2.8,0.7 -3.75,1.08 -1.88,0.73 -3.79,1.36 -5.73,1.9 0.93,-1.85 2.7,-5.57 -0.63,-4.58 -2.6,0.78 -5.03,2.77 -7.64,3.7 0.86,-1.4 4.32,-5.8 1.2,-6.05 -0.98,-0.07 -3.8,1.75 -4.86,2.14 -3.13,1.12 -6.35,1.96 -9.63,2.51 -11.2,2.02 -24.3,1.45 -34.65,6.54 -8,3.93 -15.88,10.03 -20.5,17.8 -4.44,7.48 -6.1,10.67 -7.03,19.25 -0.69,6.3 -0.74,12.8 -0.42,19.12 0.1,2.07 0.34,11.61 3.34,8.72 1.5,-1.44 1.49,-7.25 1.87,-9.22 0.75,-3.91 1.47,-7.85 2.72,-11.64 2.2,-6.68 4.81,-15.8 10.3,-20.4 3.53,-2.94 6.01,-6.93 9.39,-9.9 1.51,-1.35 3.28,-3.4 4.19,-3.51 1.63,0.12 1.89,-0.36 3.53,-0.32 3.8,0.1 7.6,0.08 11.4,0.1 7.64,0 15.25,0.12 22.89,-0.28 3.4,-0.18 6.8,-0.28 10.18,-0.6 1.9,-0.17 5.25,1.62 6.8,2.55 1.43,0.84 2.91,3.61 3.94,4.75 2.41,2.67 5.3,4.72 8.12,6.92 5.9,4.57 8.87,12.33 10.66,19.48 1.79,7.13 1.29,13.75 3.5,20.76 0.38,1.24 1.4,3.36 2.67,1.46 0.24,-0.36 0.18,-2.3 0.18,-3.42 0,-4.52 1.14,-7.91 1.13,-12.46 -0.06,-13.83 -0.5,-26.87 -10.85,-37.44
Z" fill="#724133"/>
        </g>
        <g transform="translate(49 72)" id="beard">
            <path fill-rule="evenodd" clip-rule="evenodd" d="M101.43 98.17c-2.52 2.3-5.2 3.32-8.58 2.6-.58-.12-2.95-4.54-8.85-4.54-5.9 0-8.27 4.42-8.85 4.54-3.39.72-6.07-.3-8.58-2.6-4.72-4.31-8.65-10.26-6.3-16.75 1.24-3.38 3.24-7.1 6.88-8.17 3.89-1.15 9.35 0 13.26-.8A8.6 8.6 0 0 0 84 71a8.6 8.6 0 0 0 3.58 1.46c3.92.78 9.38-.36 13.27.79 3.64 1.07 5.64 4.79 6.87 8.17 2.36 6.49-1.57 12.44-6.3 16.75ZM140.08 26c-3.4 8.4-2.1 18.86-2.72 27.68-.52 7.16-2.02 17.9-8.39 22.53-3.25 2.37-9.18 6.35-13.43 5.24-2.93-.76-3.24-9.16-7.09-12.3a22.42 22.42 0 0 0-15.3-4.9c-2.37.11-7.17.09-9.15 1.91-1.98-1.82-6.78-1.8-9.15-1.9a22.42 22.42 0 0 0-15.3 4.89c-3.85 3.14-4.16 11.54-7.1 12.3-4.24 1.1-10.17-2.87-13.42-5.24-6.37-4.62-7.87-15.37-8.39-22.53-.63-8.82.69-19.28-2.72-27.68-1.66 0-.57 16.13-.57 16.13v20.36c.04 15.28 9.59 38.16 30.76 46.9C63.29 111.53 75 115 84 115c8.98.01 20.71-3.13 25.9-5.27 21.16-8.73 30.71-31.95 30.75-47.23V42.13s1.1-16.13-.57-16.13Z" fill="#a55728" />
        </g>
        <g transform="translate(62 42)"/>
    </g>
</svg>
