<?xml version="1.0" encoding="UTF-8" standalone="no"?>
<svg
   viewBox="0 0 190 190"
   xmlns="http://www.w3.org/2000/svg"
   xmlns:svg="http://www.w3.org/2000/svg">
  <g>
      <path
         id="check"
         style="display:inline;fill:currentColor"
         d="m 52.8,93.897004 c 3.35,0 5.88,2.749996 7.6,8.249996 3.43,10.3 5.88,15.45 7.34,15.45 1.11,0 2.27,-0.86 3.47,-2.58 C 95.34,76.387 117.66,45.138001 138.18,21.272 143.5,15.091001 151.96,12 163.55,12 c 2.74,0 4.59,0.258 5.53,0.773 0.95,0.515 1.42,1.159 1.42,1.931 0,1.202 -1.42,3.563001 -4.25,7.083001 C 133.11,61.622 102.38,103.687 74.05,147.987 c -1.98,3.09 -6.01,4.64 -12.11,4.64 -6.18,0 -9.83,-0.26 -10.94,-0.78 -2.92,-1.28 -6.36,-7.85 -10.31,-19.7 -4.46,-13.13 -6.69,-21.38 -6.69,-24.72 0,-3.61 3,-7.09 9.01,-10.44 3.69,-2.059997 6.96,-3.089997 9.79,-3.089997" />
  </g>
</svg>
